<svg xmlns="http://www.w3.org/2000/svg" xmlns:xlink="http://www.w3.org/1999/xlink" width="247.94" height="204.52" viewBox="0 0 247.94 204.52"><defs><linearGradient id="a" y1="126.68" x2="121.71" y2="126.68" gradientUnits="userSpaceOnUse"><stop offset="0" stop-color="#efa297"/><stop offset="1" stop-color="#d58895"/></linearGradient><linearGradient id="b" x1="126.06" y1="127.25" x2="204.14" y2="127.25" xlink:href="#a"/><linearGradient id="c" x1="23.15" y1="24.84" x2="247.94" y2="24.84" xlink:href="#a"/></defs><g style="isolation:isolate"><g style="isolation:isolate"><path d="M100.78,153.49c-.48,2.58-.64,6,3.06,6a8.46,8.46,0,0,0,3.38-.65l-.8,10.63a28.23,28.23,0,0,1-9.5,1.61c-6.44,0-11.92-2.58-11.92-10a39.16,39.16,0,0,1,1.13-7.57L105.45,64c-2.9-1.94-6.44-2.9-11-2.9-13.52,0-20.12,9.18-22.7,20.61l-1,4.5h18L86.61,98h-18L53.13,170.23c-4.67,23-17.07,34.29-35.9,34.29A33.3,33.3,0,0,1,0,199.85l5-11.91a20.43,20.43,0,0,0,12.72,4.51c12.23,0,17.55-7.41,20.77-22.38L53.93,98H39.12l2.42-11.76H56.19l1-4.66c4.35-21.42,20-32.69,40.25-32.69,7.41,0,17.71,1.94,24.31,6.6Z" fill="url(#a)"/><path d="M156.48,172.81c-19.31,0-30.42-12.72-30.42-32,0-27.53,16.74-59.08,47.49-59.08,19.48,0,30.59,12.71,30.59,32C204.14,141.25,187.4,172.81,156.48,172.81Zm15.3-78.24c-21.57,0-30.43,27-30.43,44.11,0,11.91,4.83,21.25,17.07,21.25,21.41,0,30.42-27.05,30.42-44.11C188.84,104.06,183.85,94.57,171.78,94.57Z" fill="url(#b)"/></g></g><path d="M23.21,41.05a7.69,7.69,0,0,0,6.73,8.55c.21,0,.41,0,.62,0l.68,0a7.73,7.73,0,0,0,8-7.15,29.56,29.56,0,0,1,3-10.56C49.35,17.42,60.9,15.28,74.08,18.42l5.58,1.37.18.05,2.4.59,0,.05,16.31,4.37,87.25,22c28.26,7.44,47.65-.21,58-21.23A43.18,43.18,0,0,0,247.88,12a7.71,7.71,0,0,0-6.68-8.61l-.49,0h-.06a7.74,7.74,0,0,0-8.14,7.15,25.47,25.47,0,0,1-2.47,9C223.32,33.15,212.13,35,193.65,30.38L106.77,8.55l-.2-.05L104.65,8V8L86.2,3.05,82,2C58.44-4.23,38.43,4.23,27.64,26.15A46.53,46.53,0,0,0,23.21,41.05Z" fill="url(#c)"/></svg>