<svg xmlns="http://www.w3.org/2000/svg" width="43" height="43" viewBox="0 0 43 43"><path d="M21.5,0h0A21.51,21.51,0,0,1,43,21.5h0A21.51,21.51,0,0,1,21.5,43h0A21.51,21.51,0,0,1,0,21.5H0A21.51,21.51,0,0,1,21.5,0Z" fill="#efa297"/><path d="M21.5,0h0A21.51,21.51,0,0,1,43,21.5h0A21.51,21.51,0,0,1,21.5,43h0A21.51,21.51,0,0,1,0,21.5H0A21.51,21.51,0,0,1,21.5,0Z" fill="#efa297"/><path d="M21.5,0h0A21.51,21.51,0,0,1,43,21.5h0A21.51,21.51,0,0,1,21.5,43h0A21.51,21.51,0,0,1,0,21.5H0A21.51,21.51,0,0,1,21.5,0Z" fill="#efa297"/><rect x="12" y="12" width="18" height="18" fill="none"/><path d="M26.4,21.85H21.85V26.4H20.34V21.85H15.79V20.34h4.55V15.79h1.51v4.55H26.4Z" fill="#fff"/></svg>