<svg xmlns="http://www.w3.org/2000/svg" width="33" height="33" viewBox="0 0 33 33"><path d="M16.5,33a16.48,16.48,0,1,1,12.62-5.86,18,18,0,0,1-1.95,1.95A16.53,16.53,0,0,1,16.5,33Zm0-30.94a14.44,14.44,0,1,0,9.29,3.4,14.45,14.45,0,0,0-9.29-3.4Z" fill="#fff"/><path d="M16.5,16.5a6.19,6.19,0,1,1,6.19-6.19A6.19,6.19,0,0,1,16.5,16.5Zm0-10.31a4.13,4.13,0,1,0,4.12,4.12h0A4.12,4.12,0,0,0,16.5,6.19Z" fill="#fff"/><path d="M26.5,29.33a1,1,0,0,1-1-1,1,1,0,0,1,0-.25,9.28,9.28,0,0,0-6.75-11.27,9.4,9.4,0,0,0-2.11-.28h-.28a9.28,9.28,0,0,0-9.14,9.43,8.87,8.87,0,0,0,.28,2.12,1,1,0,0,1-.78,1.23,1,1,0,0,1-1.22-.73A11.34,11.34,0,0,1,16.34,14.44h.31A11.36,11.36,0,0,1,27.84,26a12,12,0,0,1-.34,2.59A1,1,0,0,1,26.5,29.33Z" fill="#fff"/></svg>