<svg xmlns="http://www.w3.org/2000/svg" width="23.44" height="23.43" viewBox="0 0 23.44 23.43"><path d="M12.45,23.43H11a2.15,2.15,0,0,1-2.15-2.15v-.5a9.48,9.48,0,0,1-1.47-.61L7,20.52a2.16,2.16,0,0,1-3,0H4l-1-1a2.16,2.16,0,0,1,0-3.05h0l.35-.35a10.57,10.57,0,0,1-.61-1.47h-.5A2.16,2.16,0,0,1,0,12.45V11A2.17,2.17,0,0,1,2.16,8.82h.5a8.84,8.84,0,0,1,.61-1.46L2.91,7a2.16,2.16,0,0,1,0-3h0l1-1A2.16,2.16,0,0,1,7,2.91l.35.35a11.1,11.1,0,0,1,1.47-.61v-.5A2.16,2.16,0,0,1,11,0h1.47a2.16,2.16,0,0,1,2.16,2.16v.5a8.59,8.59,0,0,1,1.47.61l.35-.36a2.16,2.16,0,0,1,3.05,0h0l1,1a2.16,2.16,0,0,1,0,3.05h0l-.35.36a9.48,9.48,0,0,1,.61,1.47h.5A2.16,2.16,0,0,1,23.44,11v1.47a2.16,2.16,0,0,1-2.16,2.16h-.5a9.48,9.48,0,0,1-.61,1.47l.35.35a2.14,2.14,0,0,1,0,3.05h0l-1,1a2.14,2.14,0,0,1-3.05,0h0l-.35-.35a8.59,8.59,0,0,1-1.47.61v.5A2.16,2.16,0,0,1,12.45,23.43Zm-4.86-4.7a8,8,0,0,0,2.09.87.68.68,0,0,1,.52.66v1a.78.78,0,0,0,.78.78h1.47a.78.78,0,0,0,.79-.78v-1a.68.68,0,0,1,.51-.66,8.24,8.24,0,0,0,2.1-.87.69.69,0,0,1,.84.1l.72.72a.78.78,0,0,0,1.11,0h0l1-1a.8.8,0,0,0,0-1.11h0l-.72-.72a.68.68,0,0,1-.11-.83,8,8,0,0,0,.87-2.1.69.69,0,0,1,.67-.52h1a.78.78,0,0,0,.79-.78V11a.78.78,0,0,0-.79-.78h-1a.68.68,0,0,1-.66-.52,8.55,8.55,0,0,0-.87-2.1.68.68,0,0,1,.1-.83L19.55,6a.78.78,0,0,0,0-1.11h0l-1-1a.78.78,0,0,0-1.11,0h0l-.72.72a.68.68,0,0,1-.83.1,8.39,8.39,0,0,0-2.1-.87.68.68,0,0,1-.52-.66v-1a.78.78,0,0,0-.78-.79H11a.78.78,0,0,0-.78.79v1a.69.69,0,0,1-.52.67,8.18,8.18,0,0,0-2.1.87.7.7,0,0,1-.83-.11L6,3.88a.8.8,0,0,0-1.11,0h0l-1,1A.8.8,0,0,0,3.88,6h0l.72.72a.69.69,0,0,1,.1.84,8.33,8.33,0,0,0-.87,2.09.67.67,0,0,1-.66.52h-1a.78.78,0,0,0-.79.78v1.48a.78.78,0,0,0,.79.78h1a.7.7,0,0,1,.67.51,7.9,7.9,0,0,0,.87,2.1.7.7,0,0,1-.11.84l-.72.72a.8.8,0,0,0,0,1.11h0l1,1a.8.8,0,0,0,1.11,0H6l.72-.72A.69.69,0,0,1,7.59,18.73Z"/><path d="M11.72,16.82a5.1,5.1,0,1,1,5.1-5.1,5.1,5.1,0,0,1-5.1,5.1Zm0-8.83a3.73,3.73,0,1,0,3.72,3.73h0A3.72,3.72,0,0,0,11.72,8Z"/></svg>