<svg xmlns="http://www.w3.org/2000/svg" xmlns:xlink="http://www.w3.org/1999/xlink" width="410.7" height="299.83" viewBox="0 0 410.7 299.83"><defs><clipPath id="a"><path d="M137.33,81.34s-2.49-16.25,12.17-15.5c13.45.69,13.63,24.44,1.27,24.72S137.33,81.34,137.33,81.34Z" fill="none"/></clipPath><clipPath id="b"><path d="M178.32,82.24S176.07,66,189.64,66.7c12.44.63,12.51,24.38,1.08,24.7S178.32,82.24,178.32,82.24Z" fill="none"/></clipPath></defs><g style="isolation:isolate"><path d="M76.68,253.64c-6.11,0-11.56-4.17-11.56-12.09,0-6.91,4-12.69,11.53-12.69a13.8,13.8,0,0,1,6.78,1.57l-1.61,3.87a9.47,9.47,0,0,0-4.94-1.43c-3.94,0-6.88,2.8-6.88,8.48,0,5.45,3.51,8.29,7.25,8.29a9,9,0,0,0,4.87-1.44l1.34,3.64A13.89,13.89,0,0,1,76.68,253.64Z" fill="#fff"/><path d="M93.21,253.71c-5.75,0-8.32-4.54-8.32-9.55s2.81-9.52,8.49-9.52,8.31,4.54,8.31,9.55S98.92,253.71,93.21,253.71ZM93.38,238c-3.18,0-4.08,3.47-4.08,6.14s.74,6.25,3.91,6.25,4.07-3.51,4.07-6.15S96.58,238,93.38,238Z" fill="#fff"/><path d="M116.15,253.08V241.65c0-2-.8-3.24-3-3.24a3.58,3.58,0,0,0-2.64,1.14,2.65,2.65,0,0,0-.9,2.4v11.13H105.4V235.27h3.94v2.61a6.26,6.26,0,0,1,5.44-3.14c3.88,0,5.58,2.54,5.58,6.08v12.26Z" fill="#fff"/><path d="M136,253.08V241.65c0-2-.8-3.24-3-3.24a3.58,3.58,0,0,0-2.64,1.14,2.65,2.65,0,0,0-.9,2.4v11.13h-4.24V235.27h3.94v2.61a6.26,6.26,0,0,1,5.44-3.14c3.88,0,5.58,2.54,5.58,6.08v12.26Z" fill="#fff"/><path d="M148,245.16c0,.13,0,.23,0,.37.23,2.94,2.37,4.74,5.41,4.74a8.69,8.69,0,0,0,4.27-1.27l1.17,3.11a13.3,13.3,0,0,1-6.21,1.53c-5.54,0-8.88-3.87-8.88-9.35,0-4.64,2.53-9.55,8.11-9.55,5,0,7.32,3.37,7.28,7.88A26.61,26.61,0,0,1,148,245.16Zm3.75-7.45c-2.64,0-3.78,2.14-3.85,4.51a16.55,16.55,0,0,0,7.32-1.5A3.23,3.23,0,0,0,151.79,237.71Z" fill="#fff"/><path d="M170.52,253.64c-5.44,0-8.48-4.07-8.48-9.22,0-4.84,2.5-9.68,8.45-9.68a9.91,9.91,0,0,1,5.37,1.4l-1.57,3.51a5.9,5.9,0,0,0-3.54-1.34c-2.9,0-4.3,2.74-4.3,6,0,3.51,2.2,5.78,4.57,5.78a6.38,6.38,0,0,0,3.54-1.17l1.27,3.11A9.47,9.47,0,0,1,170.52,253.64Z" fill="#fff"/><path d="M185.31,253.64c-3.14,0-5-1.8-5-5.07v-9.89h-3v-3.07h3v-3.68l4.25-1.33v5h4.24v3.07h-4.24v9.39c0,1.8,1,2.33,2.2,2.33a5.24,5.24,0,0,0,2-.4l.46,3.14A14.48,14.48,0,0,1,185.31,253.64Z" fill="#fff"/><path d="M219.91,253.14h-4.74L213,247c-.3-.9-.86-2.71-1-3.54h-.07c-.23,1-.73,2.7-1.1,3.7l-2.14,6H204l-3.74-17.87h4.31l1.53,9.12c.3,2,.64,4.18.74,5h.06c.2-.93.74-3,1.34-4.81l1.84-5.51h4.34l1.77,5.48c.57,1.8,1.14,4,1.37,4.84h.07c.06-.83.4-3.07.73-5l1.54-9.09h3.77Z" fill="#fff"/><path d="M229.7,232.63a2.24,2.24,0,0,1-2.44-2.27,2.27,2.27,0,0,1,2.44-2.3,2.23,2.23,0,0,1,2.4,2.3A2.2,2.2,0,0,1,229.7,232.63Zm1.2,20.78c-2.11,0-3.34-1.07-3.34-3.11v-15h4.21v14c0,.64.1,1.14.67,1.14a2.35,2.35,0,0,0,.8-.17l.23,2.78A9.81,9.81,0,0,1,230.9,253.41Z" fill="#fff"/><path d="M243.22,253.64c-3.14,0-5-1.8-5-5.07v-9.89h-3v-3.07h3v-3.68l4.24-1.33v5h4.25v3.07h-4.25v9.39c0,1.8,1,2.33,2.21,2.33a5.14,5.14,0,0,0,2-.4l.47,3.14A14.48,14.48,0,0,1,243.22,253.64Z" fill="#fff"/><path d="M261.06,253.08V241.65c0-2-.8-3.24-3-3.24a3.6,3.6,0,0,0-2.64,1.14,2.65,2.65,0,0,0-.9,2.4v11.13H250.3V228.36h4.24v9.12a6.2,6.2,0,0,1,5.15-2.74c3.87,0,5.57,2.54,5.57,6.08v12.26Z" fill="#fff"/><path d="M277.69,260.29l-.07-3.27a8.46,8.46,0,0,0,6.55-3.91c-4.08-5.28-5.42-11.26-6.25-17.84h4.58a31.53,31.53,0,0,0,4,14.1h.07a41.27,41.27,0,0,0,3-14.1h4.07C292.35,248.83,286.77,260.09,277.69,260.29Z" fill="#fff"/><path d="M303.84,253.71c-5.75,0-8.32-4.54-8.32-9.55s2.8-9.52,8.48-9.52,8.32,4.54,8.32,9.55S309.55,253.71,303.84,253.71ZM304,238c-3.17,0-4.07,3.47-4.07,6.14s.73,6.25,3.91,6.25,4.07-3.51,4.07-6.15S307.21,238,304,238Z" fill="#fff"/><path d="M329.32,253.41a2.52,2.52,0,0,1-2.88-2.64,6,6,0,0,1-5.07,2.87c-3.74,0-5.48-2.53-5.48-6.08V235.27h4.24V246.7c0,2,.87,3.27,2.74,3.27a3.09,3.09,0,0,0,2.44-1.1,3,3,0,0,0,.83-2.44V235.27h4.21v14c0,.64.1,1.14.67,1.14a2.25,2.25,0,0,0,.8-.17l.24,2.78A11.93,11.93,0,0,1,329.32,253.41Z" fill="#fff"/><path d="M345.55,239.38a4,4,0,0,0-1.61-.43,2.64,2.64,0,0,0-2.2,1,2.71,2.71,0,0,0-.67,2.23v10.93h-4.24V239.21c0-.7-.1-1.2-.67-1.2a3,3,0,0,0-.77.17l-.26-2.77a11.63,11.63,0,0,1,2.73-.4c2,0,2.64,1.26,2.64,3,1.07-1.7,2.28-3.17,4.48-3.17a5.41,5.41,0,0,1,1.67.33Z" fill="#fff"/><path d="M164.34,272.21a5.66,5.66,0,0,0-3-.87,2.79,2.79,0,0,0-3.11,3v1.37h4.28v3.07h-4.25v21.08h-4.2V278.75H151v-3.07h3v-1.3c0-3.77,3.34-6.31,7-6.31a11.88,11.88,0,0,1,4.45.76Z" fill="#fff"/><path d="M175.1,279.46a4,4,0,0,0-1.61-.44,2.64,2.64,0,0,0-2.2,1,2.69,2.69,0,0,0-.67,2.24v10.92h-4.24V279.29c0-.7-.1-1.2-.67-1.2a3.52,3.52,0,0,0-.77.16l-.27-2.77a12.36,12.36,0,0,1,2.74-.4c2,0,2.64,1.27,2.64,3,1.07-1.71,2.27-3.18,4.48-3.18a5.11,5.11,0,0,1,1.67.34Z" fill="#fff"/><path d="M181.61,272.71a2.24,2.24,0,0,1-2.44-2.27,2.27,2.27,0,0,1,2.44-2.31,2.23,2.23,0,0,1,2.4,2.31A2.21,2.21,0,0,1,181.61,272.71Zm1.2,20.77c-2.11,0-3.34-1.06-3.34-3.1v-15h4.21v14c0,.63.1,1.14.67,1.14a2.35,2.35,0,0,0,.8-.17l.23,2.77A9.41,9.41,0,0,1,182.81,293.48Z" fill="#fff"/><path d="M192.23,285.23c0,.14,0,.24,0,.37.23,2.94,2.37,4.75,5.41,4.75a8.77,8.77,0,0,0,4.28-1.27l1.17,3.1a13.34,13.34,0,0,1-6.22,1.54c-5.54,0-8.88-3.88-8.88-9.35,0-4.65,2.54-9.56,8.11-9.56,5,0,7.32,3.38,7.29,7.89A26.83,26.83,0,0,1,192.23,285.23Zm3.74-7.44c-2.64,0-3.78,2.13-3.84,4.51a16.4,16.4,0,0,0,7.31-1.51A3.22,3.22,0,0,0,196,277.79Z" fill="#fff"/><path d="M218.31,293.15V281.73c0-2-.8-3.24-3-3.24a3.61,3.61,0,0,0-2.64,1.13,2.64,2.64,0,0,0-.9,2.41v11.12h-4.25v-17.8h3.95V278a6.28,6.28,0,0,1,5.44-3.14c3.88,0,5.58,2.54,5.58,6.08v12.26Z" fill="#fff"/><path d="M240.85,293.48c-2,0-2.87-1.06-2.87-3-1.24,1.84-2.61,3.21-5.08,3.21-4.81,0-6.78-5.21-6.78-9.59s2.21-9.32,7.78-9.32a5.26,5.26,0,0,1,3.75,1.31v-7.69h4.24v20.88c0,.63.1,1.14.7,1.14a2.34,2.34,0,0,0,.77-.17l.23,2.77A11,11,0,0,1,240.85,293.48Zm-3.17-13.26c0-1.36-.87-2.33-3.17-2.33-3.08,0-4,2.84-4,5.64s.74,6.51,3.88,6.51a3.29,3.29,0,0,0,2.43-1.13,2.74,2.74,0,0,0,.84-2.27Z" fill="#fff"/><path d="M251.47,293.72a9.71,9.71,0,0,1-5.14-1.44l1.33-3.1a7.45,7.45,0,0,0,4.14,1.37c1.34,0,2.94-.51,2.94-2.07,0-1.31-1-1.74-2.7-2.41l-1.5-.57c-2.28-.9-3.81-2.24-3.81-4.84,0-3.27,2.77-5.85,6.78-5.85a9.15,9.15,0,0,1,4.71,1.27l-1.34,3.08a6.78,6.78,0,0,0-3.61-1.14c-2,0-2.63,1-2.63,2s.9,1.64,2.17,2.11l1.6.57c2.51,1,4.28,2.3,4.28,5.24C258.69,291.38,255.91,293.72,251.47,293.72Z" fill="#fff"/></g><path d="M146.14,107.74l-3.59,24.44,21,2.75V111.09Z" fill="#ecb68f"/><path d="M144.94,115.9,163.54,127V111.08Z" fill="#060000"/><path d="M101.77,25s-23,28.64-19.34,79.93L218.19,109S233,34.77,182.06,8.27Z" fill="#060000"/><ellipse cx="151.38" cy="49.14" rx="49.12" ry="56.35" transform="translate(95.15 198.03) rotate(-87.29)" fill="#060000"/><circle cx="202.43" cy="78.75" r="11.74" fill="#e1a17a"/><path d="M152.58,13.73a39.38,39.38,0,0,1,10.84.4c11.61,1.95,36.34,8.76,42.51,31.54,8.14,30.05-1.52,66.71-35.63,72.16-27.57,4.4-65-14.29-62.25-51.74C110.63,31,129.06,16.32,152.58,13.73Z" fill="#ecb68f"/><path d="M176.5,94.67s-.69-5.79-6.84-.5" fill="none" stroke="#060000" stroke-linecap="round" stroke-linejoin="round" stroke-width="1.87"/><path d="M137.33,81.34s-2.49-16.25,12.17-15.5c13.45.69,13.63,24.44,1.27,24.72S137.33,81.34,137.33,81.34Z" fill="#fff"/><g clip-path="url(#a)"><path d="M140.68,81.55c-.31,6,3.88,11.19,9.37,11.47s10.18-4.39,10.49-10.45-3.88-11.19-9.36-11.48S141,75.49,140.68,81.55Z" fill="#060000"/></g><path d="M137.19,77.89s-.09-13,12.58-12c11.95,1,9.67,15.39,9.67,15.39" fill="none" stroke="#060000" stroke-linecap="round" stroke-linejoin="round" stroke-width="2.6"/><path d="M146.48,72.06a2.16,2.16,0,0,0,4.31.2,2.16,2.16,0,1,0-4.31-.2Z" fill="#fff"/><line x1="133.57" y1="76.56" x2="136.81" y2="76.98" fill="none" stroke="#060000" stroke-linecap="round" stroke-linejoin="round" stroke-width="2.36"/><line x1="133.44" y1="73.4" x2="137.26" y2="74.4" fill="none" stroke="#060000" stroke-linecap="round" stroke-linejoin="round" stroke-width="2.36"/><line x1="134.61" y1="70.44" x2="138.12" y2="72.25" fill="none" stroke="#060000" stroke-linecap="round" stroke-linejoin="round" stroke-width="2.36"/><path d="M178.32,82.24S176.07,66,189.64,66.7c12.44.63,12.51,24.38,1.08,24.7S178.32,82.24,178.32,82.24Z" fill="#fff"/><g clip-path="url(#b)"><path d="M181.09,82.41c-.31,5.9,3.45,10.89,8.39,11.14s9.18-4.32,9.48-10.22-3.45-10.88-8.38-11.13S181.39,76.52,181.09,82.41Z" fill="#060000"/></g><path d="M178.24,77.83s.53-11.17,11.3-10.64c12.17.59,9.14,15.43,9.14,15.43" fill="none" stroke="#060000" stroke-linecap="round" stroke-linejoin="round" stroke-width="2.6"/><path d="M185.33,73.7a2.16,2.16,0,1,0,2.25-2,2.16,2.16,0,0,0-2.25,2Z" fill="#fff"/><line x1="202.07" y1="79.8" x2="199.37" y2="79.94" fill="none" stroke="#060000" stroke-linecap="round" stroke-linejoin="round" stroke-width="2.15"/><line x1="202.45" y1="76.66" x2="199.22" y2="77.33" fill="none" stroke="#060000" stroke-linecap="round" stroke-linejoin="round" stroke-width="2.15"/><line x1="201.74" y1="73.62" x2="198.7" y2="75.11" fill="none" stroke="#060000" stroke-linecap="round" stroke-linejoin="round" stroke-width="2.15"/><path d="M157.21,99.37a19.92,19.92,0,0,0,13,3.83c8-.36,10.47-4.11,10.47-4.11" fill="none" stroke="#060000" stroke-linecap="round" stroke-linejoin="round" stroke-width="1.87"/><path d="M155.45,54.38l-17.38,2.55a4.33,4.33,0,0,1-4.9-3.65h0a4.32,4.32,0,0,1,3.65-4.9l17.38-2.55a4.31,4.31,0,0,1,4.9,3.64h0a4.33,4.33,0,0,1-3.65,4.91Z" fill="#060000"/><path d="M197.43,58.75,184.3,55.53a4.11,4.11,0,0,1-3-5h0a4.11,4.11,0,0,1,5-3h0l13.13,3.21a4.12,4.12,0,0,1,3,5h0a4.11,4.11,0,0,1-5,3Z" fill="#060000"/><path d="M177,14.45s-14.62,14.5-40.78,24c-21.29,7.73-24.09,40.7-24.09,40.7L97.3,54.92l26.28-36.35s27-14.7,46.24-6.8Z" fill="#060000"/><circle cx="102.33" cy="79.77" r="11.74" fill="#ecb68f"/><path d="M97.84,76.57s7.78-.63,10,6.11" fill="none" stroke="#060000" stroke-linecap="round" stroke-linejoin="round" stroke-width="1.87"/><path d="M169.82,11.77s-2,3.62,18.13,15.4c13.08,7.64,19.72,24.64,19.72,24.64s6.05-16.65-18.53-34.64Z" fill="#060000"/><path d="M112,43.21s20.37-32.88,57.85-31.44c0,0,15.77-1.3,35.79,17.5,0,0-10.38-23.8-41-25.44S115.9,20.33,112,43.21Z" fill="#e7a168"/><path d="M137.26,127.72l-16,.83-7.13,51.15,69.64.35-5.8-49.92-8.26-.91Z" fill="#eea197"/><path d="M137.26,127.72h14.12l18.28,1.5s.47,12-12.45,12.94S138.17,136.42,137.26,127.72Z" fill="#ecb68f"/><path d="M213.32,177.86l-25.16-11.55,3.85-22,24.32,10.74Z" fill="#ecb68f"/><path d="M177.92,130.12s9.56,1.87,22.6,12.57l-9.45,26.81-18.24-5Z" fill="#eea197"/><path d="M187.08,118.46S199,156.07,209.6,174.39A10.39,10.39,0,0,0,220,179.18h0a10.74,10.74,0,0,0,7.52-16.6l-26.93-40.41Z" fill="#ecb68f"/><line x1="197.92" y1="149.8" x2="204.18" y2="163.72" fill="none" stroke="#d38f6a" stroke-linecap="round" stroke-linejoin="round" stroke-width="1.38"/><path d="M190.69,127.25s-9.95-17.55-.08-21.5l3.36-2s-2-4,1.38-5.92c0,0,3.15-1.78,4.73-1a4.68,4.68,0,0,1,6.3-1.25,6.17,6.17,0,0,1,4.27-.87,3.74,3.74,0,0,1,2.84,2.48l1,2.78a3.14,3.14,0,0,1-1,3.51l-14.92,13,3.1,7.22Z" fill="#ecb68f"/><path d="M186.28,112.13s0-6.39,10.72-9.39" fill="none" stroke="#d38f6a" stroke-linecap="round" stroke-linejoin="round" stroke-width="1.38"/><path d="M201.74,95.43a2.23,2.23,0,0,0-1.65,1.44s-1.43-1.24-4.74,1-1.38,5.92-1.38,5.92" fill="none" stroke="#d38f6a" stroke-linecap="round" stroke-linejoin="round" stroke-width="1.38"/><path d="M200.08,96.87s3.71,3.48,2.37,6.91" fill="none" stroke="#d38f6a" stroke-linecap="round" stroke-linejoin="round" stroke-width="1.38"/><path d="M206.54,95.64s3.7,3.48,2.36,6.91" fill="none" stroke="#d38f6a" stroke-linecap="round" stroke-linejoin="round" stroke-width="1.38"/><rect x="149.72" y="173.02" width="94.25" height="4.84" fill="#fff"/><path d="M102.51,144.35,91.17,162.63a10.89,10.89,0,0,0,9.26,16.64h0a10.9,10.9,0,0,0,9.48-5.51l11.31-19.87Z" fill="#ecb68f"/><path d="M121.21,128.55s-13.8,0-28,20l28,15.85s13.83-17.66,13.4-20S121.21,128.55,121.21,128.55Z" fill="#eea197"/><path d="M167.08,177.49l-5.42-9-4.72,6.37Z" fill="#fff"/><path d="M167.08,177.49l-1.94-3.21-1.7,2.29Z" fill="#060000"/><path d="M142.59,171.24s9.62-10.07,19-6.88,12.07,13.5,12.07,13.5H144.94Z" fill="#ecb68f"/><path d="M152.14,168.39,100,159c-4.13-.26-7.86,1.34-9.56,5.11h0a10.73,10.73,0,0,0,10.13,15.14l48.54-1.55Z" fill="#ecb68f"/><line x1="116.55" y1="161.98" x2="102.14" y2="159" fill="none" stroke="#d38f6a" stroke-linecap="round" stroke-linejoin="round" stroke-width="1.38"/><path d="M246.54,39.13H363.66a16,16,0,0,1,16,16v74.05a16,16,0,0,1-16,16H246.54a16,16,0,0,1-16-16h0V55.16A16,16,0,0,1,246.54,39.13Z" fill="#797979"/><rect x="235.58" y="39.13" width="149.18" height="106.12" rx="16.03" fill="#eea197"/><path d="M333.86,101.81H288.68a3.62,3.62,0,0,1-3.62-3.62h0a3.62,3.62,0,0,1,3.62-3.62h45.18a3.61,3.61,0,0,1,3.61,3.62h0a3.61,3.61,0,0,1-3.61,3.62Z" fill="#797979"/><path d="M331.1,177.89H295.34l10.05-4,4.27-1.93c3.22,0,.14-1.61,2.12-4s.12-3.47-.64-6.4L298,97.92h31l16.39,62.93a13,13,0,0,1-2.73,11.77A15,15,0,0,1,331.1,177.89Z" fill="#d68995"/><path d="M299.67,177.89H276.54a2.08,2.08,0,0,1-2.16-2h0a2.09,2.09,0,0,1,2.16-2h23.07a11.43,11.43,0,0,0,7.69-2.71,9.32,9.32,0,0,0,2.9-9.34l-15.37-59a4,4,0,0,1,3-4.85l.16,0h0l16.4,62.92A13.23,13.23,0,0,1,310,174.35,15.78,15.78,0,0,1,299.67,177.89Z" fill="#797979"/><path d="M0,177.81H410.7v9H0Z" fill="#d58895"/></svg>