<svg xmlns="http://www.w3.org/2000/svg" width="27.34" height="20.52" viewBox="0 0 27.34 20.52"><path d="M1.19,3.26H5.57a3.48,3.48,0,0,1,0-2.38H1.19A1.21,1.21,0,0,0,0,2.07,1.19,1.19,0,0,0,1.19,3.26Z" fill="#bdbdbd"/><path d="M26.14,3.26a1.18,1.18,0,0,0,1.19-1.17s0,0,0,0A1.2,1.2,0,0,0,26.14.87H12.6a3.51,3.51,0,0,1,0,2.39Z" fill="#bdbdbd"/><path d="M9.1,4.16a2,2,0,0,0,1.69-.9A2.07,2.07,0,0,0,9.1,0,2.13,2.13,0,0,0,7.38.88,2.11,2.11,0,0,0,9.1,4.17Z" fill="#bdbdbd"/><path d="M1.19,11.45H14.76a3.48,3.48,0,0,1,0-2.38H1.19a1.19,1.19,0,0,0,0,2.38Z" fill="#bdbdbd"/><path d="M26.14,9.07H21.76a3.36,3.36,0,0,1,0,2.38h4.38a1.19,1.19,0,0,0,0-2.38Z" fill="#bdbdbd"/><path d="M16.57,9.07a2.1,2.1,0,0,0-.38,1.19,2.08,2.08,0,0,0,2.07,2.07A2.13,2.13,0,0,0,20,11.45a2,2,0,0,0,.38-1.19,2.12,2.12,0,0,0-2.1-2.1A2,2,0,0,0,16.57,9.07Z" fill="#bdbdbd"/><path d="M1.19,17.26A1.19,1.19,0,0,0,0,18.45a1.21,1.21,0,0,0,1.19,1.19H5.57a3.43,3.43,0,0,1-.21-1.19,3.21,3.21,0,0,1,.21-1.19Z" fill="#bdbdbd"/><path d="M26.14,17.26H12.6a3.48,3.48,0,0,1,0,2.38H26.14a1.19,1.19,0,0,0,1.19-1.19,1.17,1.17,0,0,0-1.16-1.19Z" fill="#bdbdbd"/><path d="M9.1,16.35a2.09,2.09,0,0,0-1.72,3.29,2.13,2.13,0,0,0,1.72.88,2.07,2.07,0,0,0,1.69-3.26A2,2,0,0,0,9.1,16.35Z" fill="#bdbdbd"/></svg>