<svg id="Group_16821" data-name="Group 16821" xmlns="http://www.w3.org/2000/svg" width="9.443" height="9.585" viewBox="0 0 9.443 9.585">
  <defs>
    <style>
      .cls-1 {
        fill: #fff;
      }

      .cls-2 {
        fill: #e4eaf8;
      }

      .cls-3 {
        fill: none;
      }

      .cls-4 {
        fill: #474d54;
      }
    </style>
  </defs>
  <path id="Path_11539" data-name="Path 11539" class="cls-1" d="M50.917,182.131h-.223c.061,0-.058,0,.273,0a.7.7,0,0,0,0-1.4H48.919a.122.122,0,0,1-.1-.186,4.612,4.612,0,0,0,.668-2.508c-.042-.77-.886-1.06-1.257-.38a2.3,2.3,0,0,0-.193.739,2.468,2.468,0,0,1-1.4,1.679,2.825,2.825,0,0,0-.831.432,1.293,1.293,0,0,0-.391.482h0a.79.79,0,0,1-.713.451h-.646a.782.782,0,0,1,.014.146c-.005,4.008.013,3.838-.015,3.977.612.04,1.088-.124,1.6.253a2.6,2.6,0,0,0,1.5.511h3.4a.7.7,0,0,0,.172-1.381c-.108-.025-.275-.018-.025-.018a.7.7,0,0,0,0-1.4.866.866,0,0,0,.747-.22.7.7,0,0,0,.19-.489C51.63,182.793,51.325,182.131,50.917,182.131Z" transform="translate(-42.487 -177.01)"/>
  <path id="Path_11542" data-name="Path 11542" class="cls-2" d="M46.3,259.842a1.708,1.708,0,0,0-.891.783h0a.79.79,0,0,1-.713.451H44.05a.782.782,0,0,1,.014.146c-.005,4.008.013,3.838-.015,3.977.618.04,1.087-.124,1.6.253a2.635,2.635,0,0,0,.583.325A5.4,5.4,0,0,1,46.3,259.842Z" transform="translate(-42.486 -256.646)"/>
  <path id="Path_11544" data-name="Path 11544" class="cls-3" d="M8.281,276.766a.78.78,0,0,0-.78.78v3.826a.78.78,0,0,0,1.56,0v-3.826A.78.78,0,0,0,8.281,276.766Z" transform="translate(-7.235 -272.969)"/>
  <path id="Path_11546" data-name="Path 11546" class="cls-3" d="M8.281,340.393a.78.78,0,0,1-.78-.78v2.376a.78.78,0,0,0,1.56,0v-2.376A.78.78,0,0,1,8.281,340.393Z" transform="translate(-7.235 -333.586)"/>
  <path id="Path_11549" data-name="Path 11549" class="cls-4" d="M8.479,173.22h-1.8a4.927,4.927,0,0,0,.578-2.442.929.929,0,0,0-1.756-.493,2.483,2.483,0,0,0-.221.815,2.2,2.2,0,0,1-1.238,1.482,3.09,3.09,0,0,0-.893.467,1.565,1.565,0,0,0-.472.581c-.182.383-.606.285-.676.3A1.046,1.046,0,0,0,0,174.341v.411a.266.266,0,1,0,.532,0v-.411a.514.514,0,1,1,1.028,0v3.826a.514.514,0,1,1-1.028,0v-2.173a.266.266,0,0,0-.532,0v2.173a1.046,1.046,0,0,0,2.005.417,1.511,1.511,0,0,1,1,.2,2.849,2.849,0,0,0,1.656.564H6.151a.266.266,0,0,0,0-.532H4.658a2.339,2.339,0,0,1-1.339-.459,1.825,1.825,0,0,0-1.226-.306v-3.591H2.21a1.061,1.061,0,0,0,.954-.6,1.031,1.031,0,0,1,.31-.383,2.642,2.642,0,0,1,.784-.4,2.726,2.726,0,0,0,1.548-1.858c0-.007,0-.014,0-.021a2.185,2.185,0,0,1,.164-.652c.245-.45.731-.223.757.267a4.32,4.32,0,0,1-.627,2.352.388.388,0,0,0,.329.594H8.479a.432.432,0,1,1,0,.863H8.207a.266.266,0,1,0,0,.532h.238a.433.433,0,0,1,.427.358.443.443,0,0,1-.086.342l-.041.045-.015.013a.855.855,0,0,1-.07.05.86.86,0,0,1-.454.058.266.266,0,0,0,0,.532.434.434,0,0,1,.158.837.748.748,0,0,1-.29.03.266.266,0,0,0-.006.532.5.5,0,0,1,.181.037.553.553,0,0,1,.108.068.433.433,0,0,1-.283.762H7.393a.266.266,0,1,0,0,.532h.681a.966.966,0,0,0,.725-1.6.965.965,0,0,0,.171-1.351,3.549,3.549,0,0,0-.491-3.174Z" transform="translate(0 -169.764)"/>
</svg>
