<?xml version="1.0" encoding="utf-8"?>
<!-- Generator: Adobe Illustrator 25.2.0, SVG Export Plug-In . SVG Version: 6.00 Build 0)  -->
<svg version="1.1" id="Layer_1" xmlns="http://www.w3.org/2000/svg" xmlns:xlink="http://www.w3.org/1999/xlink" x="0px" y="0px"
	 viewBox="0 0 500 500" style="enable-background:new 0 0 500 500;" xml:space="preserve">
<style type="text/css">
	.st0{fill:url(#SVGID_1_);}
	.st1{fill:url(#SVGID_2_);}
	.st2{fill:url(#SVGID_3_);}
</style>
<g>
	<g>
		<g>
			
				<linearGradient id="SVGID_1_" gradientUnits="userSpaceOnUse" x1="33.5864" y1="208.8087" x2="246.1242" y2="208.8087" gradientTransform="matrix(1 0 0 -1 0 501.48)">
				<stop  offset="0" style="stop-color:#EFA297"/>
				<stop  offset="1" style="stop-color:#D58895"/>
			</linearGradient>
			<path class="st0" d="M209.5,339.4c-0.8,4.5-1.1,10.5,5.3,10.5c2,0,4-0.4,5.9-1.1l-1.4,18.6c-5.3,1.9-10.9,2.8-16.6,2.8
				c-11.2,0-20.8-4.5-20.8-17.5c0.2-4.5,0.9-8.9,2-13.2l33.7-156.3c-5.1-3.4-11.2-5.1-19.2-5.1c-23.6,0-35.1,16-39.6,36l-1.7,7.9
				h31.4l-3.7,20.6h-31.4l-27,126.1c-8.2,40.2-29.8,59.9-62.7,59.9c-10.6,0.1-21-2.7-30.1-8.2l8.7-20.8c6.3,5.1,14.1,7.8,22.2,7.9
				c21.3,0,30.6-12.9,36.3-39.1l27-125.8h-25.9l4.2-20.5h25.6l1.7-8.1c7.6-37.4,34.9-57.1,70.3-57.1c12.9,0,30.9,3.4,42.4,11.5
				L209.5,339.4z"/>
			
				<linearGradient id="SVGID_2_" gradientUnits="userSpaceOnUse" x1="253.6481" y1="207.823" x2="389.9517" y2="207.823" gradientTransform="matrix(1 0 0 -1 0 501.48)">
				<stop  offset="0" style="stop-color:#EFA297"/>
				<stop  offset="1" style="stop-color:#D58895"/>
			</linearGradient>
			<path class="st1" d="M306.8,373.2c-33.7,0-53.1-22.2-53.1-55.9c0-48.1,29.2-103.1,82.9-103.1c34,0,53.4,22.2,53.4,55.9
				C390,318.1,360.7,373.2,306.8,373.2z M333.5,236.6c-37.7,0-53.1,47.1-53.1,77c0,20.8,8.4,37.1,29.8,37.1
				c37.4,0,53.1-47.2,53.1-77C363.2,253.1,354.5,236.6,333.5,236.6z"/>
		</g>
	</g>
	
		<linearGradient id="SVGID_3_" gradientUnits="userSpaceOnUse" x1="74.0075" y1="386.6742" x2="466.4146" y2="386.6742" gradientTransform="matrix(1 0 0 -1 0 501.48)">
		<stop  offset="0" style="stop-color:#EFA297"/>
		<stop  offset="1" style="stop-color:#D58895"/>
	</linearGradient>
	<path class="st2" d="M74.1,143.1c-0.9,7.4,4.4,14,11.7,14.9c0,0,0,0,0,0c0.4,0,0.7,0,1.1,0h1.2c7.3,0.3,13.4-5.2,14-12.5
		c0.6-6.4,2.4-12.7,5.2-18.4c12.4-25.3,32.6-29,55.6-23.5l9.7,2.4l0.3,0.1l4.2,1v0.1l28.5,7.6l152.3,38.4
		c49.3,13,83.2-0.4,101.3-37.1c3.7-7.5,6.1-15.5,7.1-23.8c0.9-7.4-4.3-14.1-11.7-15h-0.9h-0.1c-7.3-0.4-13.7,5.1-14.2,12.5
		c-0.5,5.5-1.9,10.8-4.3,15.7c-11.7,23.8-31.3,27-63.5,18.9L220,86.4l-0.3-0.1l-3.4-0.9l0,0l-32.2-8.6l-7.3-1.8
		c-41.1-10.9-76.1,3.9-94.9,42.2C77.8,125.3,75.2,134.1,74.1,143.1z"/>
</g>
</svg>
