<svg xmlns="http://www.w3.org/2000/svg" width="23.14" height="26.33" viewBox="0 0 23.14 26.33" fill="#5B50C9"><path d="M19.54,13.52V11.06a8,8,0,0,0-5.66-7.63V2.32a2.32,2.32,0,0,0-4.63,0h0V3.43A8,8,0,0,0,3.6,11.06v2.46A12.08,12.08,0,0,1,.21,21.94.77.77,0,0,0,.24,23a.74.74,0,0,0,.53.21h7a3.86,3.86,0,0,0,7.56,0h7a.77.77,0,0,0,.77-.77.75.75,0,0,0-.22-.53A12.11,12.11,0,0,1,19.54,13.52ZM10.8,2.32a.77.77,0,1,1,1.54,0v.8c-.25,0-.51,0-.77,0s-.52,0-.77,0Zm.77,22.47a2.33,2.33,0,0,1-2.18-1.55h4.36a2.31,2.31,0,0,1-2.18,1.55ZM2.43,21.7a13.55,13.55,0,0,0,2.71-8.18V11.06a6.43,6.43,0,1,1,12.86,0v2.46a13.61,13.61,0,0,0,2.7,8.18Z"/></svg>