<svg xmlns="http://www.w3.org/2000/svg" xmlns:xlink="http://www.w3.org/1999/xlink" width="373.9" height="311.87" viewBox="0 0 373.9 311.87"><defs><clipPath id="a" transform="translate(-2.81)"><path d="M103,98.79q0-6.83,0-13.63a1,1,0,0,0-.6-.84,3.2,3.2,0,0,0-2.92,0l0,13.63a3.26,3.26,0,0,1,2.92,0A1,1,0,0,1,103,98.79Z" fill="none"/></clipPath><clipPath id="b" transform="translate(-2.81)"><path d="M103.19,98.71q0-6.83,0-13.64a1,1,0,0,1-.61.86l0,13.63A1,1,0,0,0,103.19,98.71Z" fill="none"/></clipPath><clipPath id="c" transform="translate(-2.81)"><path d="M57.74,102.66q0,6.82,0,13.64a1,1,0,0,0,.61.84,3.2,3.2,0,0,0,2.92,0l0-13.64a3.22,3.22,0,0,1-2.93,0A1,1,0,0,1,57.74,102.66Z" fill="none"/></clipPath><clipPath id="d" transform="translate(-2.81)"><path d="M226.1,173.34a11.32,11.32,0,0,1,5.53-1.33q0-6.82,0-13.63a11.28,11.28,0,0,0-5.52,1.32C226.07,163.79,226.09,169.24,226.1,173.34Z" fill="none"/></clipPath><clipPath id="e" transform="translate(-2.81)"><path d="M237.81,173.34a3.87,3.87,0,0,1,2.27,3.17L240,162.87a3.86,3.86,0,0,0-2.26-3.16,11.25,11.25,0,0,0-5.51-1.33q0,6.83.05,13.64h0A11.12,11.12,0,0,1,237.81,173.34Z" fill="none"/></clipPath><clipPath id="f" transform="translate(-2.81)"><path d="M223.38,176.55a3.89,3.89,0,0,1,2.31-3.21l0-13.64a3.9,3.9,0,0,0-2.3,3.21C223.36,167,223.38,172.46,223.38,176.55Z" fill="none"/></clipPath><clipPath id="g" transform="translate(-2.81)"><path d="M224.15,162.91q0,6.83,0,13.64a3.86,3.86,0,0,0,2.26,3.17,12.18,12.18,0,0,0,11,0,3.88,3.88,0,0,0,2.3-3.21q0-6.82,0-13.64a3.93,3.93,0,0,1-2.3,3.22,12.13,12.13,0,0,1-11,0A3.85,3.85,0,0,1,224.15,162.91Z" fill="none"/></clipPath></defs><g style="isolation:isolate"><path d="M5.31,264.61c-1.54-1.1-2.5-2.67-2.5-5.91V241H17v3.84H7.52v5.41h9.15V254H7.52v4.21a3,3,0,0,0,.86,2.57H17.5v3.84Z" transform="translate(-2.81)" fill="#fff"/><path d="M37.11,250.21a3.25,3.25,0,0,0-1.91-.5c-3.17,0-4.07,3.31-4.07,6s.9,6.15,4,6.15a3.52,3.52,0,0,0,2.1-.57l.7,3.17a6.34,6.34,0,0,1-3,.74,6.66,6.66,0,0,1-6.31-4.71c-1,2.8-3,4.71-5.62,4.71a6.39,6.39,0,0,1-2.94-.64L21,261.2a3.28,3.28,0,0,0,1.94.54c3.17,0,4-3.34,4-6.05s-.87-6.08-4-6.08a3.61,3.61,0,0,0-2.11.57l-.7-3.21a6.88,6.88,0,0,1,3-.7A6.62,6.62,0,0,1,29.49,251c1-2.77,3-4.68,5.61-4.68a6.47,6.47,0,0,1,2.94.6Z" transform="translate(-2.81)" fill="#fff"/><path d="M49.23,265.18a5.38,5.38,0,0,1-3.74-1.31v7.42H41.24V246.81h3.95v2.7c1.2-1.94,2.77-3.24,5.24-3.24C55,246.27,57,251,57,255.49,57,259.73,54.8,265.18,49.23,265.18Zm-.44-15.27a3.28,3.28,0,0,0-2.44,1.14,2.59,2.59,0,0,0-.86,2.24v6.44c0,1.31.83,2.37,3,2.37,3.14,0,4.1-3.2,4.1-6S51.83,249.91,48.79,249.91Z" transform="translate(-2.81)" fill="#fff"/><path d="M64.22,264.94c-2,0-3.34-1.07-3.34-3.1V239.89h4.24v20.88c0,.63.07,1.13.67,1.13a2.12,2.12,0,0,0,.77-.16l.27,2.77A9.74,9.74,0,0,1,64.22,264.94Z" transform="translate(-2.81)" fill="#fff"/><path d="M77.75,265.24c-5.75,0-8.32-4.54-8.32-9.55s2.81-9.52,8.48-9.52,8.32,4.54,8.32,9.55S83.46,265.24,77.75,265.24Zm.16-15.73c-3.17,0-4.07,3.48-4.07,6.15s.73,6.24,3.91,6.24,4.07-3.5,4.07-6.14S81.12,249.51,77.91,249.51Z" transform="translate(-2.81)" fill="#fff"/><path d="M99.42,250.91a4.13,4.13,0,0,0-1.6-.43,2.67,2.67,0,0,0-2.21,1,2.73,2.73,0,0,0-.67,2.24v10.92H90.7V250.75c0-.7-.1-1.21-.66-1.21a3.42,3.42,0,0,0-.77.17L89,246.94a11.8,11.8,0,0,1,2.74-.4c2,0,2.64,1.27,2.64,3,1.07-1.7,2.27-3.17,4.47-3.17a5,5,0,0,1,1.67.34Z" transform="translate(-2.81)" fill="#fff"/><path d="M105.3,256.69c0,.14,0,.24,0,.37.23,2.94,2.37,4.74,5.41,4.74a8.66,8.66,0,0,0,4.28-1.27l1.17,3.11a13.34,13.34,0,0,1-6.22,1.54c-5.54,0-8.88-3.88-8.88-9.35,0-4.65,2.54-9.56,8.12-9.56,5,0,7.31,3.38,7.28,7.88A26.68,26.68,0,0,1,105.3,256.69Zm3.74-7.44c-2.64,0-3.78,2.13-3.84,4.5a16.39,16.39,0,0,0,7.31-1.5A3.22,3.22,0,0,0,109,249.25Z" transform="translate(-2.81)" fill="#fff"/><path d="M148.15,264.68H143.4l-2.13-6.15c-.3-.9-.87-2.7-1-3.54h-.07c-.23,1-.73,2.71-1.1,3.71l-2.14,6h-4.74l-3.74-17.87h4.31l1.54,9.11c.3,2,.63,4.18.73,5h.07c.2-.94.73-3,1.33-4.82l1.84-5.51h4.34l1.77,5.48c.57,1.81,1.14,4,1.37,4.85h.07c.07-.84.4-3.08.73-5.05l1.54-9.08h3.77Z" transform="translate(-2.81)" fill="#fff"/><path d="M166.08,264.61V253.19c0-2-.8-3.24-3-3.24a3.58,3.58,0,0,0-2.64,1.13,2.64,2.64,0,0,0-.9,2.41v11.12h-4.25V239.89h4.25V249a6.17,6.17,0,0,1,5.14-2.74c3.87,0,5.58,2.54,5.58,6.08v12.26Z" transform="translate(-2.81)" fill="#fff"/><path d="M186.92,264.91a2.51,2.51,0,0,1-2.64-2.5,6.33,6.33,0,0,1-5.34,2.7,5,5,0,0,1-5.22-5.18c0-4.84,5-5.74,8.92-5.74.9,0,1.31,0,1.31-.64v-1.3c0-1.47-.87-2.77-3.41-2.77a6.5,6.5,0,0,0-4.41,1.7l-1.54-3a11.35,11.35,0,0,1,7-1.91c2.64,0,6.38,1.07,6.38,6v8.45c0,.64.1,1.17.7,1.17a3.78,3.78,0,0,0,.77-.16l.24,2.77A11.32,11.32,0,0,1,186.92,264.91Zm-3-8.05c-.53,0-1,0-1.5,0-1.81,0-4.48.4-4.48,2.74a2.33,2.33,0,0,0,2.44,2.4,3.48,3.48,0,0,0,2.77-1.17,2.77,2.77,0,0,0,.77-2.07Z" transform="translate(-2.81)" fill="#fff"/><path d="M198.84,265.18c-3.14,0-5-1.81-5-5.08v-9.89h-3v-3.07h3v-3.67l4.24-1.34v5h4.24v3.07h-4.24v9.39c0,1.8,1,2.34,2.21,2.34a5.33,5.33,0,0,0,2-.4l.47,3.14A15,15,0,0,1,198.84,265.18Z" transform="translate(-2.81)" fill="#fff"/><path d="M221.08,265.18c-3.14,0-5-1.81-5-5.08v-9.89h-3v-3.07h3v-3.67l4.24-1.34v5h4.24v3.07h-4.24v9.39c0,1.8,1,2.34,2.21,2.34a5.33,5.33,0,0,0,2-.4l.47,3.14A15,15,0,0,1,221.08,265.18Z" transform="translate(-2.81)" fill="#fff"/><path d="M238.91,264.61V253.19c0-2-.8-3.24-3-3.24a3.58,3.58,0,0,0-2.64,1.13,2.67,2.67,0,0,0-.9,2.41v11.12h-4.24V239.89h4.24V249a6.2,6.2,0,0,1,5.15-2.74c3.87,0,5.57,2.54,5.57,6.08v12.26Z" transform="translate(-2.81)" fill="#fff"/><path d="M250.94,256.69c0,.14,0,.24,0,.37.23,2.94,2.37,4.74,5.41,4.74a8.66,8.66,0,0,0,4.28-1.27l1.16,3.11a13.26,13.26,0,0,1-6.21,1.54c-5.54,0-8.88-3.88-8.88-9.35,0-4.65,2.54-9.56,8.11-9.56,5,0,7.32,3.38,7.29,7.88A26.68,26.68,0,0,1,250.94,256.69Zm3.74-7.44c-2.64,0-3.78,2.13-3.84,4.5a16.39,16.39,0,0,0,7.31-1.5A3.23,3.23,0,0,0,254.68,249.25Z" transform="translate(-2.81)" fill="#fff"/><path d="M283.6,265.18a5.4,5.4,0,0,1-3.74-1.31v7.42h-4.25V246.81h3.95v2.7c1.2-1.94,2.77-3.24,5.24-3.24,4.54,0,6.61,4.71,6.61,9.22C291.41,259.73,289.18,265.18,283.6,265.18Zm-.44-15.27a3.24,3.24,0,0,0-2.43,1.14,2.57,2.57,0,0,0-.87,2.24v6.44c0,1.31.83,2.37,3,2.37,3.14,0,4.1-3.2,4.1-6S286.2,249.91,283.16,249.91Z" transform="translate(-2.81)" fill="#fff"/><path d="M298.59,256.69c0,.14,0,.24,0,.37.24,2.94,2.38,4.74,5.42,4.74a8.66,8.66,0,0,0,4.27-1.27l1.17,3.11a13.29,13.29,0,0,1-6.21,1.54c-5.55,0-8.89-3.88-8.89-9.35,0-4.65,2.54-9.56,8.12-9.56,5,0,7.31,3.38,7.28,7.88A26.64,26.64,0,0,1,298.59,256.69Zm3.74-7.44c-2.64,0-3.77,2.13-3.84,4.5a16.44,16.44,0,0,0,7.32-1.5A3.23,3.23,0,0,0,302.33,249.25Z" transform="translate(-2.81)" fill="#fff"/><path d="M320.9,265.24c-5.75,0-8.32-4.54-8.32-9.55s2.81-9.52,8.49-9.52,8.31,4.54,8.31,9.55S326.61,265.24,320.9,265.24Zm.17-15.73c-3.18,0-4.08,3.48-4.08,6.15s.74,6.24,3.91,6.24,4.08-3.5,4.08-6.14S324.27,249.51,321.07,249.51Z" transform="translate(-2.81)" fill="#fff"/><path d="M341.07,265.18a5.42,5.42,0,0,1-3.74-1.31v7.42h-4.24V246.81H337v2.7c1.2-1.94,2.77-3.24,5.24-3.24,4.55,0,6.62,4.71,6.62,9.22C348.89,259.73,346.65,265.18,341.07,265.18Zm-.43-15.27a3.26,3.26,0,0,0-2.44,1.14,2.57,2.57,0,0,0-.87,2.24v6.44c0,1.31.84,2.37,3,2.37,3.14,0,4.11-3.2,4.11-6S343.68,249.91,340.64,249.91Z" transform="translate(-2.81)" fill="#fff"/><path d="M356.07,264.94c-2,0-3.34-1.07-3.34-3.1V239.89H357v20.88c0,.63.06,1.13.67,1.13a2.07,2.07,0,0,0,.76-.16l.27,2.77A9.65,9.65,0,0,1,356.07,264.94Z" transform="translate(-2.81)" fill="#fff"/><path d="M365.52,256.69c0,.14,0,.24,0,.37.23,2.94,2.37,4.74,5.41,4.74a8.66,8.66,0,0,0,4.28-1.27l1.16,3.11a13.26,13.26,0,0,1-6.21,1.54c-5.54,0-8.88-3.88-8.88-9.35,0-4.65,2.54-9.56,8.11-9.56,5,0,7.32,3.38,7.29,7.88A26.68,26.68,0,0,1,365.52,256.69Zm3.74-7.44c-2.64,0-3.78,2.13-3.84,4.5a16.39,16.39,0,0,0,7.31-1.5A3.23,3.23,0,0,0,369.26,249.25Z" transform="translate(-2.81)" fill="#fff"/><path d="M104.5,305a2.51,2.51,0,0,1-2.64-2.51,6.32,6.32,0,0,1-5.35,2.71A5,5,0,0,1,91.3,300c0-4.85,5-5.75,8.92-5.75.9,0,1.3,0,1.3-.63v-1.3c0-1.47-.86-2.78-3.4-2.78a6.5,6.5,0,0,0-4.41,1.71l-1.54-3a11.34,11.34,0,0,1,7-1.9c2.64,0,6.38,1.07,6.38,6v8.45c0,.63.1,1.17.7,1.17a3.35,3.35,0,0,0,.77-.17l.24,2.77A11.26,11.26,0,0,1,104.5,305Zm-3-8.05c-.53,0-1,0-1.5,0-1.81,0-4.48.4-4.48,2.74A2.33,2.33,0,0,0,98,302.05a3.5,3.5,0,0,0,2.77-1.17,2.79,2.79,0,0,0,.77-2.07Z" transform="translate(-2.81)" fill="#fff"/><path d="M120.09,291a3.91,3.91,0,0,0-1.6-.43,2.67,2.67,0,0,0-2.2,1,2.71,2.71,0,0,0-.67,2.24v10.92h-4.24V290.82c0-.7-.11-1.2-.67-1.2a3,3,0,0,0-.77.17l-.27-2.77a11.76,11.76,0,0,1,2.74-.41c2,0,2.64,1.27,2.64,3,1.07-1.7,2.27-3.17,4.47-3.17a5.28,5.28,0,0,1,1.67.33Z" transform="translate(-2.81)" fill="#fff"/><path d="M126,296.77c0,.13,0,.23,0,.37.24,2.94,2.37,4.74,5.41,4.74a8.77,8.77,0,0,0,4.28-1.27l1.17,3.11a13.46,13.46,0,0,1-6.21,1.53c-5.55,0-8.89-3.87-8.89-9.35,0-4.64,2.54-9.55,8.12-9.55,5,0,7.31,3.37,7.28,7.88A26.68,26.68,0,0,1,126,296.77Zm3.74-7.45c-2.64,0-3.77,2.14-3.84,4.51a16.5,16.5,0,0,0,7.31-1.5A3.22,3.22,0,0,0,129.71,289.32Z" transform="translate(-2.81)" fill="#fff"/><path d="M168.82,304.75h-4.74l-2.14-6.14c-.3-.91-.87-2.71-1-3.54h-.06c-.24,1-.74,2.7-1.11,3.7l-2.13,6h-4.75l-3.74-17.87h4.31L155,296c.3,2,.63,4.18.73,5h.07c.2-.93.73-3,1.33-4.81l1.84-5.51h4.34l1.77,5.48c.57,1.8,1.14,4,1.37,4.84h.07c.07-.83.4-3.07.74-5l1.53-9.09h3.78Z" transform="translate(-2.81)" fill="#fff"/><path d="M187.55,305a2.52,2.52,0,0,1-2.64-2.51,6.3,6.3,0,0,1-5.34,2.71,5,5,0,0,1-5.21-5.18c0-4.85,5-5.75,8.92-5.75.9,0,1.3,0,1.3-.63v-1.3c0-1.47-.87-2.78-3.41-2.78a6.54,6.54,0,0,0-4.41,1.71l-1.53-3a11.33,11.33,0,0,1,7-1.9c2.64,0,6.38,1.07,6.38,6v8.45c0,.63.1,1.17.7,1.17a3.47,3.47,0,0,0,.77-.17l.23,2.77A11.11,11.11,0,0,1,187.55,305Zm-3-8.05c-.54,0-1,0-1.51,0-1.8,0-4.47.4-4.47,2.74a2.33,2.33,0,0,0,2.44,2.41,3.5,3.5,0,0,0,2.77-1.17,2.83,2.83,0,0,0,.77-2.07Z" transform="translate(-2.81)" fill="#fff"/><path d="M199.47,305.25c-3.14,0-5-1.8-5-5.07v-9.89h-3v-3.07h3v-3.68l4.25-1.34v5H203v3.07h-4.24v9.38c0,1.81,1,2.34,2.2,2.34a5.14,5.14,0,0,0,2-.4l.47,3.14A14.48,14.48,0,0,1,199.47,305.25Z" transform="translate(-2.81)" fill="#fff"/><path d="M213.7,305.25c-5.44,0-8.48-4.07-8.48-9.22,0-4.84,2.5-9.68,8.45-9.68a9.91,9.91,0,0,1,5.37,1.4l-1.57,3.51a5.9,5.9,0,0,0-3.54-1.34c-2.9,0-4.3,2.74-4.3,6,0,3.51,2.2,5.78,4.57,5.78a6.38,6.38,0,0,0,3.54-1.17l1.27,3.11A9.47,9.47,0,0,1,213.7,305.25Z" transform="translate(-2.81)" fill="#fff"/><path d="M233.44,304.68V293.26c0-2-.8-3.24-3-3.24a3.58,3.58,0,0,0-2.64,1.14,2.63,2.63,0,0,0-.91,2.4v11.12h-4.24V280h4.24v9.12a6.2,6.2,0,0,1,5.15-2.74c3.87,0,5.58,2.54,5.58,6.08v12.25Z" transform="translate(-2.81)" fill="#fff"/><path d="M245.16,284.24a2.24,2.24,0,0,1-2.44-2.27,2.27,2.27,0,0,1,2.44-2.3,2.23,2.23,0,0,1,2.4,2.3A2.2,2.2,0,0,1,245.16,284.24Zm1.2,20.78c-2.1,0-3.34-1.07-3.34-3.11v-15h4.21v14c0,.64.1,1.14.67,1.14a2.35,2.35,0,0,0,.8-.17l.23,2.77A9.36,9.36,0,0,1,246.36,305Z" transform="translate(-2.81)" fill="#fff"/><path d="M263.63,304.68V293.26c0-2-.8-3.24-3-3.24a3.58,3.58,0,0,0-2.63,1.14,2.63,2.63,0,0,0-.91,2.4v11.12h-4.24v-17.8h3.94v2.61a6.27,6.27,0,0,1,5.45-3.14c3.87,0,5.58,2.54,5.58,6.08v12.25Z" transform="translate(-2.81)" fill="#fff"/><path d="M287.14,287.28A2.49,2.49,0,0,0,286,287c-.8,0-1.5.56-1.6,1.73a5.76,5.76,0,0,1,1.33,3.74c0,3.28-2.27,6.05-6.81,6.05a7.82,7.82,0,0,1-2.44-.34,4.71,4.71,0,0,0-1.07,1.91c.27.63,1,.93,2.07.93h5c2.84,0,5,1.47,5,4.58,0,4.41-4.47,6.25-8.51,6.25-3.71,0-7.35-1.47-7.35-4.41a2.84,2.84,0,0,1,.73-1.94l3.27.27a2.88,2.88,0,0,0-.2,1c0,1.53,1.61,2.33,3.58,2.33,2.87,0,4.34-1.27,4.34-2.77s-1-1.9-2.07-1.9h-5c-2.77,0-4.34-1-4.74-2.54a9.79,9.79,0,0,1,2.71-4.74,5.71,5.71,0,0,1-2-4.65c0-3.3,2.27-6.14,6.78-6.14a6.9,6.9,0,0,1,3.17.73,3.59,3.59,0,0,1,3.68-3.37,6.39,6.39,0,0,1,1.77.27ZM279,289c-2.07,0-2.77,2-2.77,3.5s.63,3.48,2.67,3.48c2.21,0,2.77-2.17,2.77-3.51C281.69,290.92,281.06,289,279,289Z" transform="translate(-2.81)" fill="#fff"/></g><path d="M263.08,154.09l-8-4.64L126,74.43l-2.21-1.28c-6-3.46-15.63-3.46-21.62,0L24.73,117.86c-6,3.46-6,9.07-.07,12.53l2.2,1.28,129.09,75,8,4.64c5.95,3.46,15.64,3.46,21.63,0L263,166.62C269,163.16,269,157.55,263.08,154.09Z" transform="translate(-2.81)" opacity="0.1" style="isolation:isolate"/><path d="M283.36,152.18l0,13.63c2.85-1.64,4.27-3.8,4.26-5.95l0-13.64c0,2.16-1.42,4.32-4.27,6Z" transform="translate(-2.81)" fill="#85a9ff"/><g clip-path="url(#a)"><path d="M99.42,84.32l0,13.63.29-.14,0-13.64a1.59,1.59,0,0,0-.29.15Z" transform="translate(-2.81)" fill="#318385"/><path d="M99.72,84.17l0,13.64.25-.09,0-13.63Z" transform="translate(-2.81)" fill="#33888a"/><path d="M100,84.09l0,13.63.21,0,0-13.64-.23.06Z" transform="translate(-2.81)" fill="#358d8f"/><path d="M100.18,84l0,13.64.2,0,0-13.63-.2,0Z" transform="translate(-2.81)" fill="#379294"/><path d="M100.38,84l0,13.64.2,0,0-13.64-.2,0Z" transform="translate(-2.81)" fill="#399799"/><path d="M100.58,84l0,13.63h.21l0-13.64-.21,0Z" transform="translate(-2.81)" fill="#3b9c9e"/><path d="M100.78,84l0,13.64H101L101,84Z" transform="translate(-2.81)" fill="#3da1a3"/><path d="M101,84l0,13.64.23,0,0-13.64L101,84Z" transform="translate(-2.81)" fill="#3fa6a8"/><path d="M101.23,84l0,13.64.26,0,0-13.64-.27,0Z" transform="translate(-2.81)" fill="#41abad"/><path d="M101.5,84l0,13.64c.14,0,.27.06.4.09l-.05-13.63A2.36,2.36,0,0,0,101.5,84Z" transform="translate(-2.81)" fill="#43b0b3"/><path d="M101.89,84.12l0,13.63a1.93,1.93,0,0,1,.44.2h0l0-13.63,0,0a2.37,2.37,0,0,0-.46-.2Z" transform="translate(-2.81)" fill="#44b5b8"/><path d="M102.36,84.33l0,13.63a1.89,1.89,0,0,1,.27.2l0-13.64a1.31,1.31,0,0,0-.27-.19Z" transform="translate(-2.81)" fill="#43b0b3"/><path d="M102.63,84.52l0,13.64.12.14,0-13.64a1.49,1.49,0,0,0-.12-.14Z" transform="translate(-2.81)" fill="#41abad"/><path d="M102.75,84.66l0,13.64.08.12,0-13.64a.94.94,0,0,0-.09-.12Z" transform="translate(-2.81)" fill="#3fa6a8"/><path d="M102.84,84.78l0,13.64a.75.75,0,0,1,.07.12l0-13.64A.67.67,0,0,1,102.84,84.78Z" transform="translate(-2.81)" fill="#3da1a3"/><path d="M102.89,84.9l0,13.64s0,.08,0,.12l0-13.64,0-.12Z" transform="translate(-2.81)" fill="#3b9c9e"/><path d="M102.93,85l0,13.64a.37.37,0,0,1,0,.11l0-13.63A.49.49,0,0,0,102.93,85Z" transform="translate(-2.81)" fill="#399799"/><path d="M102.94,85.14l0,13.64v0l0-13.64Z" transform="translate(-2.81)" fill="#379294"/></g><g clip-path="url(#b)"><path d="M102.54,85.93l0,13.63a1,1,0,0,0,.61-.85l0-13.64A1,1,0,0,1,102.54,85.93Z" transform="translate(-2.81)" fill="#858585"/></g><path d="M58.35,102.58l0,13.64L91.65,97l0-13.64Z" transform="translate(-2.81)" fill="#338789"/><path d="M66.6,104.13l0,13.63L99.9,98.56l0-13.64Z" transform="translate(-2.81)" fill="#898989"/><g clip-path="url(#c)"><path d="M57.74,102.66l0,13.64h0l0-13.63Z" transform="translate(-2.81)" fill="#949494"/><path d="M57.74,102.68l0,13.63s0,.08,0,.12l0-13.64A.36.36,0,0,1,57.74,102.68Z" transform="translate(-2.81)" fill="#999"/><path d="M57.76,102.8l0,13.63,0,.12,0-13.63a.7.7,0,0,1,0-.12Z" transform="translate(-2.81)" fill="#9e9e9e"/><path d="M57.79,102.92l0,13.63.07.12,0-13.64a.6.6,0,0,1-.06-.11Z" transform="translate(-2.81)" fill="#a3a3a3"/><path d="M57.84,103l0,13.63a.54.54,0,0,0,.07.13l0-13.65-.08-.12Z" transform="translate(-2.81)" fill="#a8a8a8"/><path d="M57.92,103.15l0,13.65a.89.89,0,0,0,.14.13l0-13.63a.67.67,0,0,1-.14-.15Z" transform="translate(-2.81)" fill="#adadad"/><path d="M58.06,103.29l0,13.64a1.57,1.57,0,0,0,.26.19l0-13.63A1.35,1.35,0,0,1,58.06,103.29Z" transform="translate(-2.81)" fill="#b3b3b3"/><path d="M58.33,103.49l0,13.63,0,0a2.28,2.28,0,0,0,.45.2l-.05-13.65a2.53,2.53,0,0,1-.45-.19s0,0,0,0Z" transform="translate(-2.81)" fill="#b8b8b8"/><path d="M58.79,103.7l.05,13.64a2.79,2.79,0,0,0,.39.1l0-13.63a3,3,0,0,1-.4-.11Z" transform="translate(-2.81)" fill="#b3b3b3"/><path d="M59.19,103.8l0,13.64.26,0,0-13.63-.27,0Z" transform="translate(-2.81)" fill="#adadad"/><path d="M59.46,103.84l0,13.64h.23l0-13.63-.23,0Z" transform="translate(-2.81)" fill="#a8a8a8"/><path d="M59.68,103.85l0,13.64h.21l0-13.63Z" transform="translate(-2.81)" fill="#a3a3a3"/><path d="M59.89,103.85l0,13.63h.2l0-13.63Z" transform="translate(-2.81)" fill="#9e9e9e"/><path d="M60.1,103.84l0,13.63.2,0,0-13.63-.2,0Z" transform="translate(-2.81)" fill="#999"/><path d="M60.3,103.82l0,13.63a1.2,1.2,0,0,0,.2,0l0-13.64-.21,0Z" transform="translate(-2.81)" fill="#949494"/><path d="M60.5,103.78l0,13.64.21,0,0-13.64Z" transform="translate(-2.81)" fill="#8f8f8f"/><path d="M60.72,103.73l0,13.64.25-.09,0-13.63Z" transform="translate(-2.81)" fill="#8a8a8a"/><path d="M61,103.65l0,13.63.31-.14,0-13.64a2.1,2.1,0,0,1-.3.15Z" transform="translate(-2.81)" fill="#858585"/></g><path d="M58.35,103.19a.9.9,0,0,0,0,1.7,3.28,3.28,0,0,0,2.93,0L94.53,85.68a.9.9,0,0,0,.56-1.14.88.88,0,0,0-.55-.55,3.22,3.22,0,0,0-2.93,0Z" transform="translate(-2.81)" fill="#dcdcdc"/><path d="M29.8,115.17a1.64,1.64,0,0,0,0,.22.65.65,0,0,0,0,.19,1.92,1.92,0,0,0,0,.22c0,.06,0,.12,0,.18s0,.14.05.22l.06.18a1.11,1.11,0,0,0,.07.22,1.34,1.34,0,0,0,.07.18,1.45,1.45,0,0,0,.09.22c0,.08.06.12.09.19a1.36,1.36,0,0,1,.1.21c0,.07.06.12.1.18s.1.17.16.25.07.1.1.16l.21.27a1,1,0,0,0,.09.13,5,5,0,0,0,.37.43l.11.12c.11.12.22.22.33.33l.15.14.21.19.2.16.22.17.22.17.25.16.23.17.26.16.33.21L36.06,122l0,13.63L34,134.43l-.17-.11-.15-.09-.28-.17-.22-.15-.26-.18-.19-.15-.25-.19-.19-.16-.21-.18L32,133,32,132.9l-.33-.33-.11-.11c-.13-.14-.26-.29-.37-.43l0,0-.07-.11a2.83,2.83,0,0,1-.2-.28l-.11-.15-.15-.26a.18.18,0,0,1-.05-.07.47.47,0,0,1-.05-.1l-.12-.22a1,1,0,0,1-.09-.18l-.09-.22a1,1,0,0,1,0-.1.24.24,0,0,1,0-.08.81.81,0,0,1-.07-.22.6.6,0,0,1-.06-.19l-.06-.21s0-.07,0-.11,0-.06,0-.09a1.55,1.55,0,0,1,0-.21,1.23,1.23,0,0,0,0-.19,1.5,1.5,0,0,1,0-.22s0-.08,0-.13v-.12q0-6.83,0-13.64A2.11,2.11,0,0,0,29.8,115.17Z" transform="translate(-2.81)" fill="#85a9ff"/><path d="M34.05,111.41c-5.66,3.27-5.7,8.57-.07,11.84l2.08,1.21,93.65-54.07-2.08-1.21c-5.62-3.27-14.77-3.27-20.43,0Z" transform="translate(-2.81)" fill="#c3dff4"/><path d="M61.27,104.89a3.28,3.28,0,0,1-2.93,0,.91.91,0,0,1-.55-1.15.92.92,0,0,1,.56-.55L91.61,84a3.28,3.28,0,0,1,2.93,0,.89.89,0,0,1,.54,1.15.87.87,0,0,1-.55.54L61.27,104.89Z" transform="translate(-2.81)" fill="#4a79d8"/><path d="M61.27,104.84l33.26-19.2a1.2,1.2,0,0,0,.29-.26,1.61,1.61,0,0,0-.28-.24,3.22,3.22,0,0,0-2.93,0l-33.26,19.2a.26.26,0,0,0-.29.22.25.25,0,0,0,.22.28h.06A3.22,3.22,0,0,0,61.27,104.84Z" transform="translate(-2.81)" fill="#85a9ff"/><path d="M36.06,123.48l0,13.63L129.76,83l0-13.63Z" transform="translate(-2.81)" fill="#338789"/><path d="M177.81,185.55l0,13.64,93.65-54.07-.05-13.64Z" transform="translate(-2.81)" fill="#898989"/><g clip-path="url(#d)"><path d="M226.07,159.7l0,13.64a7.7,7.7,0,0,1,1.12-.54l0-13.64A7.7,7.7,0,0,0,226.07,159.7Z" transform="translate(-2.81)" fill="#318385"/><path d="M227.19,159.16l0,13.64c.31-.12.63-.23.95-.32l0-13.64c-.32.09-.63.2-.94.32Z" transform="translate(-2.81)" fill="#33888a"/><path d="M228.14,158.84l0,13.64.81-.21,0-13.63c-.28.06-.54.12-.81.2Z" transform="translate(-2.81)" fill="#358d8f"/><path d="M229,158.64l0,13.64a7,7,0,0,1,.78-.13l0-13.64a6.86,6.86,0,0,0-.79.14Z" transform="translate(-2.81)" fill="#379294"/><path d="M229.73,158.51l0,13.64c.25,0,.51-.07.76-.09l0-13.63a6.14,6.14,0,0,0-.75.08Z" transform="translate(-2.81)" fill="#399799"/><path d="M230.48,158.43l.05,13.63.77,0-.05-13.64c-.26,0-.51,0-.77.05Z" transform="translate(-2.81)" fill="#3b9c9e"/><path d="M231.25,158.38l0,13.64c.26,0,.53,0,.8,0L232,158.38Z" transform="translate(-2.81)" fill="#3da1a3"/></g><g clip-path="url(#e)"><path d="M231.93,158.38,232,172c.26,0,.53,0,.8,0l-.05-13.64Z" transform="translate(-2.81)" fill="#3da1a3"/><path d="M232.72,158.38l.05,13.64.86.06,0-13.64c-.29,0-.58,0-.87-.05Z" transform="translate(-2.81)" fill="#3fa6a8"/><path d="M233.59,158.44l0,13.64c.34,0,.68.08,1,.13l0-13.63-1-.14Z" transform="translate(-2.81)" fill="#41abad"/><path d="M234.58,158.58l0,13.63a14.55,14.55,0,0,1,1.48.37l0-13.63a10.68,10.68,0,0,0-1.48-.37Z" transform="translate(-2.81)" fill="#43b0b3"/><path d="M236.06,159l0,13.64a8.7,8.7,0,0,1,1.71.75l.1.06,0-13.64-.09-.06a8.7,8.7,0,0,0-1.71-.75Z" transform="translate(-2.81)" fill="#44b5b8"/><path d="M237.86,159.75l0,13.64a6.4,6.4,0,0,1,1,.73l0-13.63a5.94,5.94,0,0,0-1-.74Z" transform="translate(-2.81)" fill="#43b0b3"/><path d="M238.85,160.49l0,13.63a3.37,3.37,0,0,1,.48.52l0-13.63A4,4,0,0,0,238.85,160.49Z" transform="translate(-2.81)" fill="#41abad"/><path d="M239.34,161l0,13.63a2.39,2.39,0,0,1,.31.47l0-13.64a3.7,3.7,0,0,0-.31-.46Z" transform="translate(-2.81)" fill="#3fa6a8"/><path d="M239.65,161.47l0,13.64a2.35,2.35,0,0,1,.22.45l0-13.64a3.1,3.1,0,0,0-.21-.45Z" transform="translate(-2.81)" fill="#3da1a3"/><path d="M239.86,161.92l0,13.64a3,3,0,0,1,.12.43l0-13.63a3.17,3.17,0,0,0-.12-.44Z" transform="translate(-2.81)" fill="#3b9c9e"/><path d="M240,162.35,240,176a3.47,3.47,0,0,1,.06.45l0-13.64a3.47,3.47,0,0,0-.06-.45Z" transform="translate(-2.81)" fill="#399799"/><path d="M240,162.8l.05,13.64v.07L240,162.87Z" transform="translate(-2.81)" fill="#379294"/></g><g clip-path="url(#f)"><path d="M223.35,162.91l0,13.64a3.89,3.89,0,0,1,2.31-3.21l0-13.64a3.9,3.9,0,0,0-2.3,3.21Z" transform="translate(-2.81)" fill="#318385"/></g><g clip-path="url(#g)"><path d="M224.15,162.91l0,13.64v.07l0-13.64v-.07Z" transform="translate(-2.81)" fill="#949494"/><path d="M224.15,163l0,13.64a2.3,2.3,0,0,0,.05.45l0-13.64a2.3,2.3,0,0,1,0-.45Z" transform="translate(-2.81)" fill="#999"/><path d="M224.2,163.43l0,13.64a2.44,2.44,0,0,0,.13.44l0-13.64a2.23,2.23,0,0,1-.13-.44Z" transform="translate(-2.81)" fill="#9e9e9e"/><path d="M224.33,163.87l0,13.64a2.86,2.86,0,0,0,.2.44l0-13.64c-.07-.14-.14-.29-.2-.44Z" transform="translate(-2.81)" fill="#a3a3a3"/><path d="M224.53,164.31l0,13.64a4.87,4.87,0,0,0,.32.47l0-13.64a4,4,0,0,1-.33-.47Z" transform="translate(-2.81)" fill="#a8a8a8"/><path d="M224.86,164.78l0,13.64a5.94,5.94,0,0,0,.49.52l0-13.64a6,6,0,0,1-.47-.52Z" transform="translate(-2.81)" fill="#adadad"/><path d="M225.33,165.3l0,13.64a6.93,6.93,0,0,0,1,.73l0-13.64a5.8,5.8,0,0,1-1-.73Z" transform="translate(-2.81)" fill="#b3b3b3"/><path d="M226.31,166l0,13.64.1.05a9,9,0,0,0,1.71.76l0-13.64a8.88,8.88,0,0,1-1.7-.75l-.11-.06Z" transform="translate(-2.81)" fill="#b8b8b8"/><path d="M228.12,166.84l0,13.64a12.76,12.76,0,0,0,1.48.36l0-13.64a9.71,9.71,0,0,1-1.48-.37Z" transform="translate(-2.81)" fill="#b3b3b3"/><path d="M229.6,167.21l0,13.63c.33.06.66.1,1,.14l0-13.63Z" transform="translate(-2.81)" fill="#adadad"/><path d="M230.59,167.35l0,13.63c.28,0,.57.05.86.06l0-13.63c-.29,0-.58,0-.87-.06Z" transform="translate(-2.81)" fill="#a8a8a8"/><path d="M231.46,167.4l0,13.64c.26,0,.53,0,.8,0l-.05-13.63h-.79Z" transform="translate(-2.81)" fill="#a3a3a3"/><path d="M232.25,167.41,232.3,181c.25,0,.51,0,.77,0l0-13.64C232.77,167.39,232.51,167.4,232.25,167.41Z" transform="translate(-2.81)" fill="#9e9e9e"/><path d="M233,167.36l0,13.63.75-.08,0-13.64c-.25,0-.5.07-.76.09Z" transform="translate(-2.81)" fill="#999"/><path d="M233.78,167.28l0,13.63c.26,0,.51-.08.77-.13l0-13.63-.77.13Z" transform="translate(-2.81)" fill="#949494"/><path d="M234.55,167.15l0,13.63c.27-.06.54-.12.81-.2l0-13.64C235.1,167,234.83,167.09,234.55,167.15Z" transform="translate(-2.81)" fill="#8f8f8f"/><path d="M235.37,166.94l0,13.64c.32-.09.64-.2.95-.32l0-13.63a8.6,8.6,0,0,1-.94.31Z" transform="translate(-2.81)" fill="#8a8a8a"/><path d="M236.31,166.63l0,13.63a8.34,8.34,0,0,0,1.13-.54,3.88,3.88,0,0,0,2.3-3.21l0-13.64a3.91,3.91,0,0,1-2.3,3.22,7.81,7.81,0,0,1-1.13.54Z" transform="translate(-2.81)" fill="#858585"/></g><path d="M226.45,159.7c-3.06,1.76-3.07,4.62,0,6.38a12.11,12.11,0,0,0,11,0c3.06-1.77,3.08-4.63,0-6.39A12.16,12.16,0,0,0,226.45,159.7Z" transform="translate(-2.81)" fill="#85a9ff"/><path d="M226.45,159.7c-3.06,1.76-3.07,4.62,0,6.38a12.11,12.11,0,0,0,11,0c3.06-1.77,3.08-4.63,0-6.39A12.16,12.16,0,0,0,226.45,159.7Z" transform="translate(-2.81)" fill="#85a9ff"/><path d="M226.45,159.7c-3.06,1.76-3.07,4.62,0,6.38a12.11,12.11,0,0,0,11,0c3.06-1.77,3.08-4.63,0-6.39A12.16,12.16,0,0,0,226.45,159.7Z" transform="translate(-2.81)" fill="#85a9ff"/><path d="M227.52,160.41a12.24,12.24,0,0,1,10.54-.23,6.63,6.63,0,0,0-.69-.49,12.16,12.16,0,0,0-11,0c-3.06,1.77-3.07,4.63,0,6.39.15.09.32.15.48.23C224.5,164.55,224.72,162,227.52,160.41Z" transform="translate(-2.81)" fill="#4a79d8"/><path d="M238.82,160.41l-.49-.23c2.3,1.76,2.08,4.29-.72,5.9a12.19,12.19,0,0,1-10.53.23,6.63,6.63,0,0,0,.69.49,12.14,12.14,0,0,0,11,0C241.84,165,241.86,162.18,238.82,160.41Z" transform="translate(-2.81)" fill="#85a9ff"/><path d="M36.06,114.68l0,13.63,121.94,70.88,0-13.64Z" transform="translate(-2.81)" fill="#c3dff4"/><path d="M36.06,114.68l122,70.87,93.65-54.07L129.72,60.61Z" transform="translate(-2.81)" fill="#e3f1fe"/><path d="M280,147.7l-73.15,42.23c-5.66,3.27-14.81,3.27-20.43,0l-7.55-4.38,93.65-54.07,7.55,4.38C285.67,139.13,285.64,144.43,280,147.7Zm-52.26,12c-3.06,1.76-3.07,4.62,0,6.38a12.13,12.13,0,0,0,11,0c3.06-1.77,3.07-4.63,0-6.39a12.18,12.18,0,0,0-11,0Z" transform="translate(-2.81)" fill="#c3dff4"/><path d="M284.25,141.74c0,2.16-1.42,4.31-4.27,6l-73.14,42.23c-.35.2-.71.38-1.06.56l-.36.15c-.26.12-.51.23-.78.33l-.25.09-.89.31-.29.09-.59.15c-.29.08-.59.16-.88.22l-.61.12-.76.14-.64.09-.73.08c-.24,0-.44,0-.67.06l-.72,0h-1.46l-.63,0-1-.06-.58,0-.29,0-1-.14-.24,0-.59-.12-.8-.17-.57-.15-.74-.21c-.36-.11-.7-.23-1-.36l-.12,0-.92-.4c-.1,0-.18-.09-.28-.12-.33-.16-.65-.34-1-.52l-7.54-4.38,0,13.64,7.54,4.38c.31.18.64.35,1,.51l.28.13.9.39.14.06c.29.1.58.21.88.3l.16.05.75.21c.19.05.37.11.56.15l.8.18.47.09.12,0,.24,0c.33.06.66.1,1,.14l.31,0a.57.57,0,0,0,.18,0l.39,0c.33,0,.65.06,1,.07H197a2.8,2.8,0,0,1,.29,0l.35,0,.75,0h.32l.34,0c.24,0,.49,0,.73-.09l.33,0,.3,0,.77-.15.36-.05.24-.07c.3-.06.6-.14.89-.22l.38-.09a1.66,1.66,0,0,0,.21-.06l.3-.1c.3-.09.59-.19.88-.3l.25-.08.12,0,.65-.29.37-.16c.36-.17.72-.36,1.06-.56L280,161.34c2.85-1.65,4.27-3.8,4.26-6Q284.27,148.56,284.25,141.74Z" transform="translate(-2.81)" fill="#85a9ff"/><path d="M33.84,113.76,35.92,115l121.85,70.81,7.54,4.38c5.62,3.27,14.76,3.27,20.42,0L258.82,148c5.66-3.26,5.69-8.56.07-11.83l-7.54-4.38L129.5,60.94l-2.09-1.21c-5.62-3.26-14.75-3.26-20.42,0l-73.08,42.2C28.24,105.2,28.21,110.49,33.84,113.76Z" transform="translate(-2.81)" fill="#e3f1fe" opacity="0.5" style="isolation:isolate"/><path d="M33.84,104.21l2.08,1.21,121.85,70.81,7.54,4.38c5.62,3.27,14.76,3.27,20.42,0l73.09-42.2c5.66-3.26,5.69-8.55.07-11.82l-7.54-4.38L129.5,51.4l-2.09-1.21c-5.62-3.27-14.75-3.27-20.42,0L33.91,92.38C28.24,95.65,28.21,101,33.84,104.21Z" transform="translate(-2.81)" fill="#e3f1fe" opacity="0.42" style="isolation:isolate"/><path d="M33.84,94.67l2.08,1.2,121.85,70.82,7.54,4.38c5.62,3.27,14.76,3.27,20.42,0l73.09-42.2c5.66-3.27,5.69-8.56.07-11.83l-7.54-4.38L129.5,41.85l-2.09-1.21c-5.62-3.27-14.75-3.27-20.42,0L33.91,82.84C28.24,86.1,28.21,91.4,33.84,94.67Z" transform="translate(-2.81)" fill="#e3f1fe" opacity="0.34" style="isolation:isolate"/><path d="M33.84,85.12l2.08,1.21,121.85,70.81,7.54,4.38c5.62,3.27,14.76,3.27,20.42,0l73.09-42.2c5.66-3.26,5.69-8.56.07-11.83l-7.54-4.38L129.5,32.3l-2.09-1.21c-5.62-3.26-14.75-3.26-20.42,0L33.91,73.29C28.24,76.56,28.21,81.85,33.84,85.12Z" transform="translate(-2.81)" fill="#e3f1fe" opacity="0.25" style="isolation:isolate"/><path d="M33.84,75.57l2.08,1.21,121.85,70.81,7.54,4.38c5.62,3.27,14.76,3.27,20.42,0l73.09-42.2c5.66-3.26,5.69-8.56.07-11.82l-7.54-4.38L129.5,22.75l-2.09-1.21c-5.62-3.26-14.75-3.26-20.42,0L33.91,63.74C28.24,67,28.21,72.3,33.84,75.57Z" transform="translate(-2.81)" fill="#e3f1fe" opacity="0.17" style="isolation:isolate"/><path d="M33.84,66l2.08,1.21L157.77,138l7.54,4.38c5.62,3.27,14.76,3.27,20.42,0l73.09-42.19c5.66-3.27,5.69-8.56.07-11.83L251.35,84,129.5,13.2,127.41,12c-5.62-3.26-14.75-3.26-20.42,0L33.91,54.19C28.24,57.46,28.21,62.75,33.84,66Z" transform="translate(-2.81)" fill="#e3f1fe" opacity="0.08" style="isolation:isolate"/><path d="M33.84,56.47l2.08,1.21L157.77,128.5l7.54,4.38c5.62,3.27,14.76,3.27,20.42,0l73.09-42.2c5.66-3.27,5.69-8.56.07-11.83l-7.54-4.38L129.5,3.66l-2.09-1.21c-5.62-3.27-14.75-3.27-20.42,0L33.91,44.64C28.24,47.91,28.21,53.21,33.84,56.47Z" transform="translate(-2.81)" fill="#e3f1fe" fill-opacity="0"/><g opacity="0.1"><path d="M84.83,177c10.72,6.19,10.77,16.23.12,22.42s-28,6.19-38.71,0S35.46,183.22,46.12,177,74.1,170.84,84.83,177Z" transform="translate(-2.81)"/></g><path d="M129.79,69.09l-2.08-1.21c-5.63-3.27-14.77-3.27-20.43,0L34.13,110.11a10.58,10.58,0,0,0-2.33,1.83l225.89,31.48L251.74,140Z" transform="translate(-2.81)" fill="#fff" opacity="0.3" style="isolation:isolate"/><g opacity="0.1"><path d="M153.62,177,54.53,119.4l83.61-48.52,100.47,58.28Z" transform="translate(-2.81)"/></g><path d="M55.27,138.69v-.11a.14.14,0,0,0,0-.06v-.05s0,0,0-.06a.13.13,0,0,0,0-.06.43.43,0,0,0,0,0s0,0,0-.06,0,0,0-.05h0a618126410239.54,618126410239.54,0,0,0,0-.12s0,0,0,0l0-.06s0,0,0-.05,0,0,0,0l0-.06,0-.07,0-.07h0v0l-.09-.13-.06-.1-.05-.06a.21.21,0,0,1,0-.06.1.1,0,0,1,0,0l0,0,0,0s0,0-.05-.05l0,0-.05-.05,0,0,0,0,0,0,0,0,0,0h0l-11.66-6.73,0,0,0,0-.05,0h0l0,0,0,0h-.36l-.07,0-.1,0-1.15.68a.6.6,0,0,1,.35-.08h0a1.12,1.12,0,0,1,.43.16L53,137.52a2,2,0,0,1,.43.34h0a2.25,2.25,0,0,1,.34.47h0a2.53,2.53,0,0,1,.24.53h0a2.44,2.44,0,0,1,.09.54,1.12,1.12,0,0,1-.09.44h0a.69.69,0,0,1-.24.27l1.15-.68a.47.47,0,0,0,.19-.18.35.35,0,0,0,0-.08,618126410239.58,618126410239.58,0,0,0,0-.12l0-.06a.43.43,0,0,0,0-.05s0,0,0,0v-.21Z" transform="translate(-2.81)" fill="#85a9ff"/><path d="M53,137.51a2.43,2.43,0,0,1,1.1,1.9c0,.7-.5,1-1.11.63L41.35,133.3a2.4,2.4,0,0,1-1.1-1.9c0-.69.5-1,1.11-.62Z" transform="translate(-2.81)" fill="#add3ea"/><path d="M71.92,147.3v-.17a.07.07,0,0,1,0,0,.11.11,0,0,1,0-.05V147a.14.14,0,0,0,0-.06.36.36,0,0,0,0-.1h0a.14.14,0,0,1,0-.06.14.14,0,0,1,0-.06.08.08,0,0,1,0-.05l0,0,0-.06s0,0,0-.05l0-.06,0-.06,0-.08h0a0,0,0,0,0,0,0l-.08-.13-.07-.1a.21.21,0,0,0,0-.07l0-.05s0,0,0,0l0-.05,0,0,0-.05-.05-.05s0,0,0,0l-.06,0,0,0,0,0,0,0,0,0h0l-11.66-6.74,0,0,0,0,0,0,0,0,0,0h-.4l-.08,0-.09,0-1.16.67a.63.63,0,0,1,.36-.07h0a1.16,1.16,0,0,1,.43.15l11.66,6.73a1.74,1.74,0,0,1,.42.34h0a2.94,2.94,0,0,1,.34.47h0a2.79,2.79,0,0,1,.24.53h0a1.6,1.6,0,0,1,.09.53,1,1,0,0,1-.09.44h0a.57.57,0,0,1-.24.27l1.16-.67a.58.58,0,0,0,.19-.19.25.25,0,0,0,0-.07l0-.06a.08.08,0,0,1,0-.06.14.14,0,0,1,0-.06v-.06a133272879891.81,133272879891.81,0,0,1,0-.1v-.11h0Z" transform="translate(-2.81)" fill="#85a9ff"/><path d="M69.67,146.12a2.43,2.43,0,0,1,1.09,1.9c0,.7-.49,1-1.1.63L58,141.92a2.42,2.42,0,0,1-1.1-1.9c0-.7.49-1,1.11-.63Z" transform="translate(-2.81)" fill="#add3ea"/><path d="M236.59,178.54a3.66,3.66,0,0,0-1.66,2.87c0,1.06.76,1.48,1.67,1l17.64-10.19a3.63,3.63,0,0,0,1.66-2.87c0-1.05-.75-1.48-1.67-1Z" transform="translate(-2.81)" fill="#608eea"/><path d="M236.59,178.54a3.66,3.66,0,0,0-1.66,2.87c0,1.06.76,1.48,1.67,1l17.64-10.19a3.63,3.63,0,0,0,1.66-2.87c0-1.05-.75-1.48-1.67-1Z" transform="translate(-2.81)" fill="#608eea"/><path d="M236.59,178.54a3.66,3.66,0,0,0-1.66,2.87c0,1.06.76,1.48,1.67,1l17.64-10.19a3.63,3.63,0,0,0,1.66-2.87c0-1.05-.75-1.48-1.67-1Z" transform="translate(-2.81)" fill="#608eea"/><path d="M236.48,178.54a3.66,3.66,0,0,0-1.66,2.87,2,2,0,0,0,.05.24h0l17.64-10.18a3.67,3.67,0,0,0,1.66-2.88,2,2,0,0,0,0-.24s0,0,0,0Z" transform="translate(-2.81)" fill="#487fd8"/><g opacity="0.7"><path d="M79.47,18.27A12.68,12.68,0,1,1,66.8,5.59,12.67,12.67,0,0,1,79.47,18.27Z" transform="translate(-2.81)" fill="#b839e3" fill-opacity="0"/><path d="M77.47,18.38A10.68,10.68,0,1,1,66.8,7.71,10.68,10.68,0,0,1,77.47,18.38Z" transform="translate(-2.81)" fill="#c45ae8" opacity="0.08" style="isolation:isolate"/><path d="M75.47,18.49A8.67,8.67,0,1,1,66.8,9.82a8.68,8.68,0,0,1,8.67,8.67Z" transform="translate(-2.81)" fill="#d07bec" opacity="0.17" style="isolation:isolate"/><path d="M73.46,18.6a6.67,6.67,0,1,1-6.66-6.67,6.66,6.66,0,0,1,6.66,6.67Z" transform="translate(-2.81)" fill="#dc9cf1" opacity="0.25" style="isolation:isolate"/><path d="M71.45,18.7A4.66,4.66,0,1,1,66.8,14h0A4.66,4.66,0,0,1,71.45,18.7Z" transform="translate(-2.81)" fill="#e7bdf6" opacity="0.33" style="isolation:isolate"/><path d="M69.45,18.81a2.66,2.66,0,1,1-2.65-2.65A2.65,2.65,0,0,1,69.45,18.81Z" transform="translate(-2.81)" fill="#f3defa" opacity="0.42" style="isolation:isolate"/><path d="M67.44,18.92a.65.65,0,0,1-1.3,0,.65.65,0,0,1,.65-.65h0A.65.65,0,0,1,67.44,18.92Z" transform="translate(-2.81)" fill="#fff" opacity="0.5" style="isolation:isolate"/></g><path d="M79.22,192.73s1.65,3.4-.82,4.46-2.46-.59-7,3.16-8.62,2.09-9.37,1.42c-1.24-1.11-.54-4.32,9.64-9.48Z" transform="translate(-2.81)" fill="#615a8e"/><path d="M78.4,197.19c-2.47,1.06-2.47-.59-7.05,3.16s-8.7,2.18-9.36,1.42c-.08-.09-.33-.28-.35-.49,4.27,1.51,6.79-.59,8.66-2a14.22,14.22,0,0,1,6.5-2.7c2.94-.63,1.86-2.9,1.86-2.9a1.36,1.36,0,0,1,.8-.28C79.81,194.4,80.2,196.41,78.4,197.19Z" transform="translate(-2.81)" fill="#484475"/><path d="M64.87,182.58s1.64,3.4-.82,4.46-2.47-.59-7,3.16-8.71,2.18-9.37,1.43c-.5-.57-.54-4.32,9.64-9.48Z" transform="translate(-2.81)" fill="#615a8e"/><path d="M64,187c-2.46,1.06-2.46-.59-7,3.17s-8.7,2.17-9.37,1.42a.8.8,0,0,1-.15-.47c4.28,1.51,6.59-.62,8.47-2.06a14.36,14.36,0,0,1,6.5-2.72c2.93-.63,1.85-2.89,1.85-2.89a1.42,1.42,0,0,1,.81-.28C65.45,184.25,65.84,186.26,64,187Z" transform="translate(-2.81)" fill="#484475"/><path d="M86.5,137.85s-4.86-.72-7.53-3.56c0,0-18.53,12.86-20.07,17-1.47,4-3.59,23.22-3.46,31.5,0,2.65,10,4.59,10.56.79,1.07-6.84,1.9-26,1.9-26S90,149.68,86.5,137.85Z" transform="translate(-2.81)" fill="#171718"/><path d="M102.76,136.59s2.66,9.3-4.12,14.51-18.76,12.46-18.76,12.46a152.79,152.79,0,0,1,.42,17.12c-.22,9.82,0,9.55-.42,13-.29,2.49-9.94,3.31-10.4-1.06-1-8.93-.72-31.59,1.17-35.69s15-13.23,15-13.23l-2.09-6.4S96,140.37,102.76,136.59Z" transform="translate(-2.81)" fill="#282528"/><path d="M102.76,136.59s2.66,9.3-4.12,14.51-18.76,12.46-18.76,12.46a152.79,152.79,0,0,1,.42,17.12c-.22,9.82,0,9.55-.42,13-.29,2.49-9.94,3.31-10.4-1.06-1-8.93-.72-31.59,1.17-35.69s15-13.23,15-13.23l-2.09-6.4S96,140.37,102.76,136.59Z" transform="translate(-2.81)" fill="#282528"/><path d="M59.94,117.64a6.93,6.93,0,0,0-3.26-1,6.46,6.46,0,0,0-4.17.8c-1.32.5-2.26,1-2,1.67s3.25,1.75,5.05,1.31c1.11-.27,3.91,1.27,4.56,1.27S60.63,118,59.94,117.64Z" transform="translate(-2.81)" fill="#ffaa83"/><path d="M60.12,121.68c-.65,0-3.44-1.55-4.55-1.27a7.33,7.33,0,0,1-4.27-.7l0-.09c.28-.37,1.24-.11,1.85-.26s2.48,0,3.69-.25,3.43,1.15,3.43,1.15l.21.14C60.51,121.1,60.37,121.68,60.12,121.68Z" transform="translate(-2.81)" fill="#f29c79"/><path d="M87.62,98.21s-3.63-4.66-7.23.51c-2.34,3.37-6.28,16.76-7.77,17.9-.74.56-13.16.1-13.16.1s1.86,1.83-.57,5.37c0,0,16.17,5.15,18.83,1.83C82.27,118.23,89.91,103.85,87.62,98.21Z" transform="translate(-2.81)" fill="#f2c9f2"/><path d="M81,125.48c0-.44.1-1,.12-1.62v-.06c.05-2,.24-3.88-1.93-8.64a16.4,16.4,0,0,1-.57-10.86,13.54,13.54,0,0,1,4.22-9.06c2-1.48,19.36,5.75,19.84,6.09,6.42,4.61-2.3,13.5,0,29,1.22,8.15.67,8.61.67,8.61-12,5.88-25-4.27-25-4.27a9.93,9.93,0,0,0,.71-1.22A54.53,54.53,0,0,0,81,125.48Z" transform="translate(-2.81)" fill="#ffe9fe"/><path d="M81,125.48c0-.44.1-1,.12-1.62v-.06c.05-2,.24-3.88-1.93-8.64a16.4,16.4,0,0,1-.57-10.86,13.54,13.54,0,0,1,4.22-9.06c2-1.48,19.36,5.75,19.84,6.09,6.42,4.61-2.3,13.5,0,29,1.22,8.15.67,8.61.67,8.61-12,5.88-25-4.27-25-4.27a9.93,9.93,0,0,0,.71-1.22A54.53,54.53,0,0,0,81,125.48Z" transform="translate(-2.81)" fill="#ffe9fe"/><path d="M86.64,93.27s.94,4.24,0,6.47,2.46,2.94,4.07,2.38,4.15-1.67,3.82-3.1-1.78-6.13-.85-7.81S86.64,93.27,86.64,93.27Z" transform="translate(-2.81)" fill="#f79f7c"/><path d="M94.83,80.24s4.86,4.81,3.54,9.88c-.72,2.81-3.94,4.64-5.78,6.07s-6.44,4.69-8.35,1.35-4.14-13,0-17.3S94.83,80.24,94.83,80.24Z" transform="translate(-2.81)" fill="#ffaa83"/><path d="M84.24,82.32s.57,3.34,6.92,4.32c1.82.28,1.49,5.79,2.91,4.4.54-.53,2-1.58,2.12-.79.8,3.8-4.67,4.94-3.79,7.44,1.38,3.87,12.33,9.19,8.52-13.24-.89-5.27-4.13-9-11.74-8.4-6,.48-8.49,5.66-6.35,6.35C83.16,82.52,83,82.19,84.24,82.32Z" transform="translate(-2.81)" fill="#221d19"/><path d="M89.71,133.51a7.36,7.36,0,0,0-3.44.85,6.87,6.87,0,0,0-3.26,3c-.89,1.16-1.45,2.13-.87,2.57s3.82-.18,5.18-1.55c.84-.84,4.14-1,4.71-1.32S90.51,133.47,89.71,133.51Z" transform="translate(-2.81)" fill="#ffaa83"/><path d="M92,137c-.57.36-3.87.47-4.71,1.32A7.47,7.47,0,0,1,83.17,140a.38.38,0,0,1,0-.1c0-.49,1-.76,1.49-1.23s2.19-1.37,3.14-2.21,3.66-.83,3.66-.83h.26C92.06,136.31,92.25,136.9,92,137Z" transform="translate(-2.81)" fill="#f29c79"/><path d="M102.33,101.17c-1.19-.65-3.71-1.22-4.26,3s3.9,19.83,3.18,21.65c-.35.9-12.45,7.12-12.45,7.12s2.63.63,2.38,5.1c0,0,17.08-4.12,17.64-8.52C109.81,122,107.87,104.23,102.33,101.17Z" transform="translate(-2.81)" fill="#e3b1e5"/><path d="M79.88,193.68c.38-3.45.2-3.18.42-13a152.79,152.79,0,0,0-.42-17.12s12-7.26,18.76-12.46a12.16,12.16,0,0,0,4.6-9.18C100.76,148,85.69,158.5,80.91,160c-6.07,1.91-2.85,9.36-3,11-.1,1.32.36,17.72.55,24C79.27,194.69,79.81,194.22,79.88,193.68Z" transform="translate(-2.81)" fill="#171718"/><path d="M68.4,82.89,26,57.92c-1-.6-1.85-.13-1.87,1l0,4.09,46,27.13,0-4.08A4.08,4.08,0,0,0,68.4,82.89Z" transform="translate(-2.81)" fill="#709dda"/><path d="M70.21,86.1l0,4.08-46-27.13-.36,31a4.05,4.05,0,0,0,1.81,3.21l42.37,25c1,.59,1.85.13,1.86-1Z" transform="translate(-2.81)" fill="#f0f8ff"/><path d="M58.5,87.74V90.5L32.64,75.57V72.82Z" transform="translate(-2.81)" fill="#aecfff"/><path d="M58.5,93.52v2.76L32.64,81.35V78.6Z" transform="translate(-2.81)" fill="#aecfff"/><path d="M58.5,101.23V104L32.64,89.06V86.31Z" transform="translate(-2.81)" fill="#aecfff"/><path d="M58.5,107v2.76L32.64,94.84V92.09Z" transform="translate(-2.81)" fill="#aecfff"/><g opacity="0.7"><path d="M45.57,61.26A16.95,16.95,0,1,1,28.63,44.31h0A17,17,0,0,1,45.57,61.26Z" transform="translate(-2.81)" fill="#fff" fill-opacity="0"/><path d="M42.89,61.41A14.27,14.27,0,1,1,28.62,47.14h0A14.27,14.27,0,0,1,42.89,61.41Z" transform="translate(-2.81)" fill="#fff" opacity="0.12" style="isolation:isolate"/><path d="M40.21,61.55A11.59,11.59,0,1,1,28.62,50h0A11.6,11.6,0,0,1,40.21,61.55Z" transform="translate(-2.81)" fill="#fff" opacity="0.23" style="isolation:isolate"/><path d="M37.53,61.7a8.91,8.91,0,1,1-8.91-8.91h0a8.91,8.91,0,0,1,8.91,8.91Z" transform="translate(-2.81)" fill="#fff" opacity="0.35" style="isolation:isolate"/><path d="M34.85,61.84a6.23,6.23,0,1,1-6.23-6.23h0a6.23,6.23,0,0,1,6.23,6.23Z" transform="translate(-2.81)" fill="#fff" opacity="0.47" style="isolation:isolate"/><path d="M32.17,62a3.55,3.55,0,1,1-3.55-3.55h0A3.55,3.55,0,0,1,32.17,62Z" transform="translate(-2.81)" fill="#fff" opacity="0.58" style="isolation:isolate"/><path d="M29.49,62.13a.87.87,0,1,1-.87-.87h0a.88.88,0,0,1,.87.87Z" transform="translate(-2.81)" fill="#fff" opacity="0.7" style="isolation:isolate"/></g><path d="M87.53,173.79c12.37,7.14,12.44,18.72.16,25.86s-32.28,7.14-44.65,0-12.44-18.72-.15-25.86S75.17,166.65,87.53,173.79Z" transform="translate(-2.81)" fill="#e3f1fe" opacity="0.4" style="isolation:isolate"/><g opacity="0.83"><path d="M89.83,160.36c13.65,7.87,13.72,20.65.16,28.52s-35.6,7.89-49.25,0S27,168.23,40.59,160.36,76.19,152.48,89.83,160.36Z" transform="translate(-2.81)" fill="#e3effe" opacity="0.5" style="isolation:isolate"/></g><g opacity="0.67"><path d="M92.12,146.92c14.92,8.62,15,22.58.18,31.19s-38.93,8.61-53.84,0-15-22.57-.18-31.19S77.21,138.32,92.12,146.92Z" transform="translate(-2.81)" fill="#e2edfd" opacity="0.6" style="isolation:isolate"/></g><g opacity="0.5"><path d="M94.41,133.49c16.2,9.35,16.28,24.51.2,33.86s-42.26,9.34-58.45,0S19.88,142.84,36,133.49,78.23,124.15,94.41,133.49Z" transform="translate(-2.81)" fill="#e2ebfd" opacity="0.7" style="isolation:isolate"/></g><g opacity="0.33"><path d="M96.71,120.06c17.46,10.08,17.55,26.43.2,36.52s-45.58,10.08-63,0-17.56-26.44-.21-36.52S79.24,110,96.71,120.06Z" transform="translate(-2.81)" fill="#e1e9fd" opacity="0.8" style="isolation:isolate"/></g><g opacity="0.17"><path d="M99,106.62c18.74,10.82,18.84,28.37.22,39.19s-48.91,10.81-67.65,0-18.83-28.37-.22-39.19S80.26,95.81,99,106.62Z" transform="translate(-2.81)" fill="#e1e7fc" opacity="0.9" style="isolation:isolate"/></g><g opacity="0"><path d="M101.29,93.19c20,11.55,20.12,30.29.24,41.85s-52.23,11.55-72.25,0-20.12-30.3-.23-41.85S81.28,81.64,101.29,93.19Z" transform="translate(-2.81)" fill="#e0e5fc"/></g><path d="M317,191c-.18,0-10-.29-7.78,3.38a5.43,5.43,0,0,0,4.83,2.82c1.47.05,4.14-.81,4.8-.38s4,2.72,5.88.41a3.68,3.68,0,0,0,.38-2.68C324.86,193.65,318.07,190.75,317,191Z" transform="translate(-2.81)" fill="#5bb0ff"/><path d="M309.21,194.34a5.41,5.41,0,0,0,4.83,2.82c1.47.05,4.14-.81,4.8-.38s4,2.72,5.88.41a2.92,2.92,0,0,0,.44-1.32c-1.32,2-4.57,1.43-5.48.78a5.07,5.07,0,0,0-3.78-.84,7.11,7.11,0,0,1-5.45-1.41,2.29,2.29,0,0,1-.64-2.36A1.47,1.47,0,0,0,309,194,1.3,1.3,0,0,0,309.21,194.34Z" transform="translate(-2.81)" fill="#3d93ff"/><path d="M321.78,112.47s8.26,12.2,2.28,29.77c-1.3,3.83-3.88,12-3,16,1,4.81,2.55,3.45,3.64,19.35,1,14.05.79,11,1.11,16.69.1,1.63-5.87,3.33-6.78.81-3.93-11-9.4-34.07-8.28-46.79s1.82-24.61,1.82-24.61S317.89,116.09,321.78,112.47Z" transform="translate(-2.81)" fill="#171718"/><path d="M298.52,197.54c-.2,0-10.3-2.26-8.64,2a5.87,5.87,0,0,0,4.53,3.88c1.51.33,4.43,0,5,.54s3.66,3.6,6,1.58a3.8,3.8,0,0,0,.85-2.71C306.22,201.86,299.67,197.53,298.52,197.54Z" transform="translate(-2.81)" fill="#5bb0ff"/><path d="M289.88,199.51a5.87,5.87,0,0,0,4.53,3.88c1.51.33,4.43,0,5,.54s3.66,3.6,6,1.57a3,3,0,0,0,.69-1.27c-1.71,1.77-5,.58-5.82-.27a5.48,5.48,0,0,0-3.78-1.61,7.63,7.63,0,0,1-5.42-2.51,2.46,2.46,0,0,1-.26-2.58A1.51,1.51,0,0,0,289.7,199,1.28,1.28,0,0,0,289.88,199.51Z" transform="translate(-2.81)" fill="#3d93ff"/><path d="M319.05,124.13s6.71,7.12-5.29,25.17c0,0-5.83,12.84-5.62,16.94.25,4.93,2.22,5.39.28,21.46-1.69,14-1,14.27-2.06,15.43s-6.84,0-7-2.45c-1.07-13.66-3.2-33.74-2-46.44,1.42-14.6,2.46-26.59,2.46-26.59S314.64,127,319.05,124.13Z" transform="translate(-2.81)" fill="#282528"/><path d="M297.35,154.24c-1.23,12.7.91,32.78,2,46.44.08,1.09,1.24,1.91,2.59,2.41-.4-10.46-1.13-29.73-1.42-41.93-.32-12.86,4.33-27.4,6.8-34.15-4.05.48-7.49.64-7.49.64S298.77,139.63,297.35,154.24Z" transform="translate(-2.81)" fill="#171718"/><path d="M275.61,93.28a6.25,6.25,0,0,1-2.33-2.06,6.42,6.42,0,0,1-1.43-3.72c-.27-1.31-.27-2.12.26-2.47.71-.45,2.09.18,2.85,2.79s3.41,2.94,3.71,3.45S276.22,93.62,275.61,93.28Z" transform="translate(-2.81)" fill="#ffaa83"/><path d="M275.88,90.83c-.31-.17.34-1.28-.63-3.94-.75-2.07,1.23.2,1.43.68s2,3.8,2,3.8A6.66,6.66,0,0,1,275.88,90.83Z" transform="translate(-2.81)" fill="#ffaa83"/><path d="M315.05,125s-3.1,4.9-6.23,4.29-3.54-1.28-2.22-2.12,4.81-3.23,4.15-3.45-2.13.11-2-.54,4.57-1.48,4.57-1.48l3.07,1.49Z" transform="translate(-2.81)" fill="#ffaa83"/><path d="M317.09,90.16s-.59-5.53,4.74-5.63c5.65-.1,4.39,11.69,4.39,11.69s-.28,10.19-1.29,13.36c-1.36,4.21-8.84,15.1-8.84,15.1s-3.33-.79-4.3-3.16c0,0,5.9-10.28,6.42-14.19C318.79,103.07,317,91.1,317.09,90.16Z" transform="translate(-2.81)" fill="#e3b1e5"/><path d="M316.09,124.67s7.48-10.88,8.84-15.09c1-3.17,1.3-13.36,1.3-13.36s2-11.37-4.38-11.89c-2.58-.21-3,.89-3.64,1.73,4.12.25,4.52,3,4.14,9.1-.42,6.64.45,8.52.07,14.19s-6.36,11.19-7.28,12.52c-.6.89-2.05-.19-3-1l-.38.68C312.76,123.89,316.09,124.67,316.09,124.67Z" transform="translate(-2.81)" fill="#e3b1e5"/><path d="M298.85,97.15s-1.5-6.2,8.64-10.29,16.44-4.18,16.73,1.65-2.12,13.69-2.41,16.33c-.22,2.09.72,3.63,2.63,13,1.31,6.39,2.94,11.7-13.24,13.23-2.84.26-12.52,1.27-11.44-5.53C303.09,104.49,300.24,104.05,298.85,97.15Z" transform="translate(-2.81)" fill="#ffe9fe"/><path d="M308.29,80s1.44,4.33-.64,7.18c-1.14,1.55,10,4,8.93-.58-.9-3.75.61-7.14,3.37-10Z" transform="translate(-2.81)" fill="#ffaa83"/><path d="M308.78,83.15a18.9,18.9,0,0,0,4.32-1.56l.19.09,1,.26.4.15s-.59,4.66-6.54,4.13A9.71,9.71,0,0,0,308.78,83.15Z" transform="translate(-2.81)" fill="#f79f7c"/><path d="M308.19,62.23s-1.82,2.94-4.26,7.93c-2.15,4.39-2.52,9.46.28,11.77C305.52,83,314.82,85.19,319,74.4,321.67,67.52,317,58.47,308.19,62.23Z" transform="translate(-2.81)" fill="#ffaa83"/><path d="M306.25,62.46c-1.12,1-3.23,3.93-.36,5.17,4.09,1.79.94,7.19,2.32,8.26.77.59.74-.47,2.77-1.94.81-.57,1.83-.2,2,2.11s-3.35,5.66-2.34,6.43,7.31-1.12,8.5-2.25c2.94-2.81,6.73-9.92,1.46-16.4C316.15,58.37,308.18,60.77,306.25,62.46Z" transform="translate(-2.81)" fill="#221d19"/><path d="M307.18,95.67c.28-1.2.08-5-3.47-5.93-2.3-.57-15.19,10.12-16.85,9.91-.82-.1-8.22-9.47-8.22-9.47s.05,2.47-3.68,3.3c0,0,7.11,14.13,10.85,13.6C292.24,106.17,305.88,101.3,307.18,95.67Z" transform="translate(-2.81)" fill="#e3b1e5"/><path d="M333.56,176.58c14.2,8.2,14.28,21.49.17,29.68s-37,8.19-51.24,0-14.27-21.48-.17-29.68S319.37,168.38,333.56,176.58Z" transform="translate(-2.81)" fill="#fff" opacity="0.51" style="isolation:isolate"/><g opacity="0.83"><path d="M336.19,161.16c15.66,9,15.74,23.7.19,32.74s-40.86,9-56.52,0-15.74-23.7-.18-32.74S320.54,152.12,336.19,161.16Z" transform="translate(-2.81)" fill="#fafdff" opacity="0.6" style="isolation:isolate"/></g><g opacity="0.67"><path d="M338.82,145.74c17.12,9.88,17.22,25.92.21,35.8s-44.68,9.88-61.8,0-17.21-25.91-.2-35.8S321.71,135.86,338.82,145.74Z" transform="translate(-2.81)" fill="#f6faff" opacity="0.68" style="isolation:isolate"/></g><g opacity="0.5"><path d="M341.46,130.32c18.58,10.73,18.68,28.13.22,38.86s-48.5,10.73-67.08,0-18.68-28.12-.22-38.86S322.88,119.6,341.46,130.32Z" transform="translate(-2.81)" fill="#f1f8ff" opacity="0.76" style="isolation:isolate"/></g><g opacity="0.33"><path d="M344.09,114.9c20,11.58,20.15,30.35.24,41.92s-52.32,11.57-72.36,0-20.15-30.34-.23-41.92S324.05,103.33,344.09,114.9Z" transform="translate(-2.81)" fill="#ecf6fe" opacity="0.84" style="isolation:isolate"/></g><g opacity="0.17"><path d="M346.72,99.49c21.51,12.41,21.62,32.55.25,45s-56.13,12.41-77.64,0-21.61-32.56-.24-45S325.22,87.07,346.72,99.49Z" transform="translate(-2.81)" fill="#e8f3fe" opacity="0.92" style="isolation:isolate"/></g><g opacity="0"><path d="M349.36,84.07c23,13.25,23.09,34.77.27,48s-59.95,13.26-82.92,0-23.09-34.77-.27-48S326.39,70.81,349.36,84.07Z" transform="translate(-2.81)" fill="#e3f1fe"/></g></svg>