<svg xmlns="http://www.w3.org/2000/svg" xmlns:xlink="http://www.w3.org/1999/xlink" width="427.03" height="317.94" viewBox="0 0 427.03 317.94"><defs><clipPath id="a" transform="translate(-2.67)"><path d="M219.82,93.65s3-16.17-10.6-16.11c-12.5,0-13.7,23.84-2.25,24.7S219.82,93.65,219.82,93.65Z" fill="none"/></clipPath><clipPath id="b" transform="translate(-2.67)"><path d="M261,94.69s3.27-16.17-11.47-16.11c-13.51.06-14.81,23.85-2.44,24.71S261,94.69,261,94.69Z" fill="none"/></clipPath><clipPath id="c" transform="translate(-2.67)"><path d="M192.92,195.82H97.31a12.07,12.07,0,0,1-11-7L56,122.36a6.74,6.74,0,0,1,3.33-8.94,6.64,6.64,0,0,1,2.81-.61h95.65a11.08,11.08,0,0,1,10.07,6.47l30.88,67.53a6.37,6.37,0,0,1-3.15,8.44A6.49,6.49,0,0,1,192.92,195.82Z" fill="none"/></clipPath></defs><g style="isolation:isolate"><g style="isolation:isolate"><path d="M119.71,267.66h-5.58l-2.57-7.89c-.53-1.73-1-3.84-1.3-5h-.07a47.81,47.81,0,0,1-1.27,5l-2.4,7.89h-5.58L96.4,244h4.78l2.2,13.06c.33,2.07.7,4.48.8,5.51h.07c.27-1.3.87-3.57,1.4-5.38l2.47-8.18h4.78l2.5,7.82c.61,1.9,1.27,4.37,1.57,5.77H117c.1-1.23.47-3.94.87-6.21L120,244h4.41Z" transform="translate(-2.67)" fill="#fff"/><path d="M130,259.68c0,.13,0,.23,0,.36.23,2.94,2.37,4.75,5.41,4.75a8.77,8.77,0,0,0,4.28-1.27l1.16,3.1a13.26,13.26,0,0,1-6.21,1.54c-5.54,0-8.88-3.88-8.88-9.35,0-4.65,2.54-9.56,8.11-9.56,5,0,7.32,3.38,7.29,7.89A27,27,0,0,1,130,259.68Zm3.74-7.45c-2.64,0-3.78,2.13-3.84,4.51a16.4,16.4,0,0,0,7.31-1.51A3.23,3.23,0,0,0,133.74,252.23Z" transform="translate(-2.67)" fill="#fff"/><path d="M148.83,267.93c-2,0-3.34-1.07-3.34-3.11V242.87h4.24v20.88c0,.63.07,1.14.67,1.14a2.14,2.14,0,0,0,.77-.17l.27,2.77A9.69,9.69,0,0,1,148.83,267.93Z" transform="translate(-2.67)" fill="#fff"/><path d="M162.52,268.16c-5.44,0-8.48-4.08-8.48-9.22,0-4.84,2.5-9.69,8.45-9.69a9.94,9.94,0,0,1,5.38,1.41l-1.57,3.5a6,6,0,0,0-3.54-1.33c-2.91,0-4.31,2.74-4.31,6,0,3.51,2.2,5.78,4.57,5.78a6.44,6.44,0,0,0,3.55-1.17l1.26,3.11A9.42,9.42,0,0,1,162.52,268.16Z" transform="translate(-2.67)" fill="#fff"/><path d="M178.19,268.23c-5.75,0-8.32-4.55-8.32-9.56s2.81-9.52,8.48-9.52,8.32,4.55,8.32,9.56S183.9,268.23,178.19,268.23Zm.16-15.74c-3.17,0-4.07,3.48-4.07,6.15s.73,6.25,3.91,6.25,4.07-3.51,4.07-6.15S181.56,252.49,178.35,252.49Z" transform="translate(-2.67)" fill="#fff"/><path d="M210.72,267.59V256.17c0-2-.81-3.24-2.71-3.24a3.37,3.37,0,0,0-3.24,3.54v11.12h-4.24V256.17c0-2-.77-3.24-2.67-3.24a3,3,0,0,0-2.41,1.1,2.87,2.87,0,0,0-.83,2.44v11.12h-4.25v-17.8h3.95v2.47a5.63,5.63,0,0,1,5-3,4.79,4.79,0,0,1,4.88,3.28c1.27-1.91,2.8-3.28,5.27-3.28,3.74,0,5.41,2.54,5.41,6.08v12.26Z" transform="translate(-2.67)" fill="#fff"/><path d="M222.74,259.68c0,.13,0,.23,0,.36.23,2.94,2.37,4.75,5.41,4.75a8.77,8.77,0,0,0,4.28-1.27l1.16,3.1a13.26,13.26,0,0,1-6.21,1.54c-5.54,0-8.88-3.88-8.88-9.35,0-4.65,2.54-9.56,8.11-9.56,5,0,7.32,3.38,7.29,7.89A27,27,0,0,1,222.74,259.68Zm3.74-7.45c-2.64,0-3.78,2.13-3.84,4.51a16.4,16.4,0,0,0,7.31-1.51A3.23,3.23,0,0,0,226.48,252.23Z" transform="translate(-2.67)" fill="#fff"/><path d="M253.23,268.16c-3.14,0-5-1.81-5-5.08v-9.89h-3v-3.07h3v-3.67l4.24-1.34v5h4.24v3.07h-4.24v9.39c0,1.8,1,2.34,2.2,2.34a5.4,5.4,0,0,0,2-.4l.46,3.14A14.46,14.46,0,0,1,253.23,268.16Z" transform="translate(-2.67)" fill="#fff"/><path d="M267.29,268.23c-5.75,0-8.32-4.55-8.32-9.56s2.8-9.52,8.48-9.52,8.32,4.55,8.32,9.56S273,268.23,267.29,268.23Zm.16-15.74c-3.17,0-4.07,3.48-4.07,6.15s.73,6.25,3.91,6.25,4.07-3.51,4.07-6.15S270.66,252.49,267.45,252.49Z" transform="translate(-2.67)" fill="#fff"/><path d="M303.19,267.93c-2,0-3.34-1.07-3.34-3.11V246a4.83,4.83,0,0,0-1.37-.2c-2.44,0-4.58.87-4.58,3.61v.73h3.61v3.07h-3.57v21.08h-4.21V253.19h-3.08v-3.07h3.08v-.77c0-4.87,4.24-6.84,8.65-6.84a13.92,13.92,0,0,1,5.71,1.07v20.17c0,.63.1,1.14.67,1.14a2.14,2.14,0,0,0,.77-.17l.26,2.77A9.32,9.32,0,0,1,303.19,267.93Z" transform="translate(-2.67)" fill="#fff"/><path d="M316.71,268.23c-5.74,0-8.31-4.55-8.31-9.56s2.8-9.52,8.48-9.52,8.32,4.55,8.32,9.56S322.42,268.23,316.71,268.23Zm.17-15.74c-3.17,0-4.08,3.48-4.08,6.15s.74,6.25,3.91,6.25,4.08-3.51,4.08-6.15S320.09,252.49,316.88,252.49Z" transform="translate(-2.67)" fill="#fff"/></g><g style="isolation:isolate"><path d="M6,311.6c-2,0-3.34-1.07-3.34-3.11V286.55H6.91v20.87c0,.64.07,1.14.67,1.14a2.14,2.14,0,0,0,.77-.17l.27,2.77A9.69,9.69,0,0,1,6,311.6Z" transform="translate(-2.67)" fill="#fff"/><path d="M15.16,290.82a2.24,2.24,0,0,1-2.44-2.27,2.27,2.27,0,0,1,2.44-2.3,2.24,2.24,0,0,1,2.41,2.3A2.21,2.21,0,0,1,15.16,290.82Zm1.21,20.78c-2.11,0-3.35-1.07-3.35-3.11v-15h4.21v14c0,.64.1,1.14.67,1.14a2.25,2.25,0,0,0,.8-.17l.24,2.77A9.36,9.36,0,0,1,16.37,311.6Z" transform="translate(-2.67)" fill="#fff"/><path d="M30.93,311.3H26.55l-5.81-17.84h4.67l2.51,9.72c.43,1.6.87,3.64,1,4.34H29c.17-.8.67-2.87,1.1-4.41l2.64-9.65h4Z" transform="translate(-2.67)" fill="#fff"/><path d="M42.35,303.35c0,.13,0,.23,0,.37.23,2.93,2.37,4.74,5.41,4.74a8.77,8.77,0,0,0,4.28-1.27l1.17,3.11A13.47,13.47,0,0,1,47,311.83c-5.54,0-8.88-3.87-8.88-9.35,0-4.64,2.54-9.55,8.11-9.55,5,0,7.32,3.37,7.29,7.88A26.83,26.83,0,0,1,42.35,303.35Zm3.74-7.45c-2.64,0-3.78,2.14-3.84,4.51a16.53,16.53,0,0,0,7.31-1.5A3.22,3.22,0,0,0,46.09,295.9Z" transform="translate(-2.67)" fill="#fff"/><path d="M61.52,311.83a9.78,9.78,0,0,1-5.15-1.43l1.34-3.11a7.43,7.43,0,0,0,4.14,1.37c1.34,0,2.94-.5,2.94-2.07,0-1.3-1-1.74-2.71-2.41l-1.5-.57c-2.27-.9-3.81-2.23-3.81-4.84,0-3.27,2.78-5.84,6.78-5.84a9,9,0,0,1,4.71,1.27l-1.33,3.07a6.89,6.89,0,0,0-3.61-1.14c-2,0-2.64,1-2.64,2s.9,1.63,2.17,2.1l1.61.57c2.5,1,4.27,2.3,4.27,5.24C68.73,309.49,66,311.83,61.52,311.83Z" transform="translate(-2.67)" fill="#fff"/><path d="M78.41,311.83c-3.14,0-5-1.8-5-5.07v-9.89h-3V293.8h3v-3.68l4.25-1.34v5h4.24v3.07H77.65v9.38c0,1.81,1,2.34,2.2,2.34a5.14,5.14,0,0,0,2-.4l.47,3.14A14.48,14.48,0,0,1,78.41,311.83Z" transform="translate(-2.67)" fill="#fff"/><path d="M95,297.57a4,4,0,0,0-1.6-.44,2.68,2.68,0,0,0-2.21,1,2.75,2.75,0,0,0-.67,2.24v10.92H86.26V297.4c0-.7-.1-1.2-.67-1.2a3,3,0,0,0-.76.17l-.27-2.78a12.27,12.27,0,0,1,2.74-.4c2,0,2.64,1.27,2.64,3C91,294.5,92.21,293,94.41,293a5.34,5.34,0,0,1,1.67.33Z" transform="translate(-2.67)" fill="#fff"/><path d="M100.86,303.35c0,.13,0,.23,0,.37.23,2.93,2.37,4.74,5.41,4.74a8.77,8.77,0,0,0,4.28-1.27l1.16,3.11a13.39,13.39,0,0,1-6.21,1.53c-5.54,0-8.88-3.87-8.88-9.35,0-4.64,2.54-9.55,8.11-9.55,5,0,7.32,3.37,7.28,7.88A26.75,26.75,0,0,1,100.86,303.35Zm3.74-7.45c-2.64,0-3.78,2.14-3.84,4.51a16.53,16.53,0,0,0,7.31-1.5A3.23,3.23,0,0,0,104.6,295.9Z" transform="translate(-2.67)" fill="#fff"/><path d="M127.91,311.56a2.5,2.5,0,0,1-2.64-2.5,6.31,6.31,0,0,1-5.35,2.7,5,5,0,0,1-5.21-5.17c0-4.85,5-5.75,8.92-5.75.9,0,1.31,0,1.31-.63v-1.3c0-1.47-.87-2.78-3.41-2.78a6.5,6.5,0,0,0-4.41,1.71l-1.54-3a11.34,11.34,0,0,1,7-1.9c2.64,0,6.38,1.07,6.38,6v8.45c0,.63.1,1.17.7,1.17a3.24,3.24,0,0,0,.77-.17l.24,2.77A11.32,11.32,0,0,1,127.91,311.56Zm-3-8.05c-.53,0-1,0-1.5,0-1.81,0-4.48.4-4.48,2.74a2.33,2.33,0,0,0,2.44,2.41,3.52,3.52,0,0,0,2.77-1.17,2.8,2.8,0,0,0,.77-2.08Z" transform="translate(-2.67)" fill="#fff"/><path d="M154.36,311.26V299.84c0-2-.8-3.24-2.71-3.24a3.37,3.37,0,0,0-3.24,3.54v11.12h-4.24V299.84c0-2-.77-3.24-2.67-3.24a3,3,0,0,0-2.41,1.1,2.91,2.91,0,0,0-.83,2.44v11.12H134v-17.8H138v2.47a5.65,5.65,0,0,1,5-3,4.8,4.8,0,0,1,4.88,3.27c1.27-1.9,2.8-3.27,5.28-3.27,3.74,0,5.41,2.54,5.41,6.08v12.25Z" transform="translate(-2.67)" fill="#fff"/><path d="M176.66,311.83a9.74,9.74,0,0,1-5.14-1.43l1.34-3.11a7.43,7.43,0,0,0,4.14,1.37c1.33,0,2.94-.5,2.94-2.07,0-1.3-1-1.74-2.71-2.41l-1.5-.57c-2.27-.9-3.81-2.23-3.81-4.84,0-3.27,2.77-5.84,6.78-5.84a9,9,0,0,1,4.71,1.27l-1.33,3.07a6.89,6.89,0,0,0-3.61-1.14c-2,0-2.64,1-2.64,2s.9,1.63,2.17,2.1l1.6.57c2.51,1,4.28,2.3,4.28,5.24C183.88,309.49,181.11,311.83,176.66,311.83Z" transform="translate(-2.67)" fill="#fff"/><path d="M194.73,311.9c-5.74,0-8.31-4.54-8.31-9.55s2.8-9.52,8.48-9.52,8.32,4.54,8.32,9.55S200.44,311.9,194.73,311.9Zm.17-15.73c-3.17,0-4.08,3.47-4.08,6.14s.74,6.25,3.91,6.25,4.08-3.51,4.08-6.15S198.11,296.17,194.9,296.17Z" transform="translate(-2.67)" fill="#fff"/><path d="M214.67,311.83c-5.45,0-8.48-4.07-8.48-9.22,0-4.84,2.5-9.68,8.45-9.68a9.94,9.94,0,0,1,5.37,1.4l-1.57,3.51a5.9,5.9,0,0,0-3.54-1.34c-2.9,0-4.31,2.74-4.31,6,0,3.51,2.21,5.78,4.58,5.78a6.38,6.38,0,0,0,3.54-1.17l1.27,3.11A9.47,9.47,0,0,1,214.67,311.83Z" transform="translate(-2.67)" fill="#fff"/><path d="M226.26,290.82a2.24,2.24,0,0,1-2.44-2.27,2.27,2.27,0,0,1,2.44-2.3,2.23,2.23,0,0,1,2.4,2.3A2.2,2.2,0,0,1,226.26,290.82Zm1.2,20.78c-2.11,0-3.34-1.07-3.34-3.11v-15h4.21v14c0,.64.1,1.14.67,1.14a2.35,2.35,0,0,0,.8-.17l.23,2.77A9.36,9.36,0,0,1,227.46,311.6Z" transform="translate(-2.67)" fill="#fff"/><path d="M245.69,311.56a2.5,2.5,0,0,1-2.63-2.5,6.31,6.31,0,0,1-5.35,2.7,5,5,0,0,1-5.21-5.17c0-4.85,5-5.75,8.92-5.75.9,0,1.3,0,1.3-.63v-1.3c0-1.47-.87-2.78-3.41-2.78a6.49,6.49,0,0,0-4.4,1.71l-1.54-3a11.33,11.33,0,0,1,7-1.9c2.64,0,6.38,1.07,6.38,6v8.45c0,.63.1,1.17.7,1.17a3.35,3.35,0,0,0,.77-.17l.23,2.77A11.16,11.16,0,0,1,245.69,311.56Zm-3-8.05c-.54,0-1,0-1.51,0-1.8,0-4.47.4-4.47,2.74a2.33,2.33,0,0,0,2.44,2.41,3.53,3.53,0,0,0,2.77-1.17,2.84,2.84,0,0,0,.77-2.08Z" transform="translate(-2.67)" fill="#fff"/><path d="M255.31,311.6c-2,0-3.34-1.07-3.34-3.11V286.55h4.24v20.87c0,.64.07,1.14.67,1.14a2.14,2.14,0,0,0,.77-.17l.27,2.77A9.69,9.69,0,0,1,255.31,311.6Z" transform="translate(-2.67)" fill="#fff"/><path d="M291.55,311.26V299.84c0-2-.8-3.24-2.71-3.24a3.37,3.37,0,0,0-3.24,3.54v11.12h-4.24V299.84c0-2-.77-3.24-2.67-3.24a3,3,0,0,0-2.41,1.1,2.91,2.91,0,0,0-.83,2.44v11.12h-4.24v-17.8h3.94v2.47a5.65,5.65,0,0,1,5-3,4.8,4.8,0,0,1,4.88,3.27c1.27-1.9,2.8-3.27,5.28-3.27,3.74,0,5.41,2.54,5.41,6.08v12.25Z" transform="translate(-2.67)" fill="#fff"/><path d="M303.57,303.35c0,.13,0,.23,0,.37.23,2.93,2.37,4.74,5.41,4.74a8.77,8.77,0,0,0,4.28-1.27l1.17,3.11a13.47,13.47,0,0,1-6.22,1.53c-5.54,0-8.88-3.87-8.88-9.35,0-4.64,2.54-9.55,8.12-9.55,5,0,7.31,3.37,7.28,7.88A26.83,26.83,0,0,1,303.57,303.35Zm3.74-7.45c-2.64,0-3.78,2.14-3.84,4.51a16.5,16.5,0,0,0,7.31-1.5A3.22,3.22,0,0,0,307.31,295.9Z" transform="translate(-2.67)" fill="#fff"/><path d="M332.32,311.6c-2,0-2.87-1.07-2.87-3-1.24,1.83-2.6,3.2-5.08,3.2-4.81,0-6.78-5.21-6.78-9.58s2.21-9.32,7.79-9.32a5.29,5.29,0,0,1,3.74,1.3v-7.68h4.24v20.87c0,.64.1,1.14.7,1.14a2.34,2.34,0,0,0,.77-.17l.23,2.77A11,11,0,0,1,332.32,311.6Zm-3.17-13.26c0-1.37-.87-2.34-3.17-2.34-3.08,0-4,2.84-4,5.64s.74,6.52,3.88,6.52a3.29,3.29,0,0,0,2.43-1.14,2.73,2.73,0,0,0,.84-2.27Z" transform="translate(-2.67)" fill="#fff"/><path d="M341.71,290.82a2.24,2.24,0,0,1-2.44-2.27,2.27,2.27,0,0,1,2.44-2.3,2.23,2.23,0,0,1,2.4,2.3A2.2,2.2,0,0,1,341.71,290.82Zm1.2,20.78c-2.11,0-3.34-1.07-3.34-3.11v-15h4.21v14c0,.64.1,1.14.66,1.14a2.35,2.35,0,0,0,.81-.17l.23,2.77A9.36,9.36,0,0,1,342.91,311.6Z" transform="translate(-2.67)" fill="#fff"/><path d="M361.14,311.56a2.52,2.52,0,0,1-2.64-2.5,6.28,6.28,0,0,1-5.34,2.7,5,5,0,0,1-5.21-5.17c0-4.85,5-5.75,8.92-5.75.9,0,1.3,0,1.3-.63v-1.3c0-1.47-.87-2.78-3.41-2.78a6.54,6.54,0,0,0-4.41,1.71l-1.53-3a11.33,11.33,0,0,1,7-1.9c2.64,0,6.38,1.07,6.38,6v8.45c0,.63.1,1.17.7,1.17a3.35,3.35,0,0,0,.77-.17l.23,2.77A11.16,11.16,0,0,1,361.14,311.56Zm-3-8.05c-.54,0-1,0-1.51,0-1.8,0-4.47.4-4.47,2.74a2.33,2.33,0,0,0,2.44,2.41,3.53,3.53,0,0,0,2.77-1.17,2.84,2.84,0,0,0,.77-2.08Z" transform="translate(-2.67)" fill="#fff"/><path d="M388.33,311.56a2.5,2.5,0,0,1-2.64-2.5,6.31,6.31,0,0,1-5.35,2.7,5,5,0,0,1-5.21-5.17c0-4.85,5-5.75,8.92-5.75.9,0,1.3,0,1.3-.63v-1.3c0-1.47-.86-2.78-3.4-2.78a6.5,6.5,0,0,0-4.41,1.71l-1.54-3a11.34,11.34,0,0,1,7-1.9c2.64,0,6.38,1.07,6.38,6v8.45c0,.63.1,1.17.7,1.17a3.24,3.24,0,0,0,.77-.17l.24,2.77A11.32,11.32,0,0,1,388.33,311.56Zm-3-8.05c-.53,0-1,0-1.5,0-1.81,0-4.48.4-4.48,2.74a2.33,2.33,0,0,0,2.44,2.41,3.52,3.52,0,0,0,2.77-1.17,2.8,2.8,0,0,0,.77-2.08Z" transform="translate(-2.67)" fill="#fff"/><path d="M402.42,311.83a5.46,5.46,0,0,1-3.74-1.3v7.41h-4.24V293.46h3.94v2.71c1.2-1.94,2.77-3.24,5.24-3.24,4.55,0,6.62,4.71,6.62,9.22C410.24,306.39,408,311.83,402.42,311.83ZM402,296.57a3.26,3.26,0,0,0-2.44,1.13,2.58,2.58,0,0,0-.87,2.24v6.45c0,1.3.83,2.37,3,2.37,3.14,0,4.11-3.21,4.11-6S405,296.57,402,296.57Z" transform="translate(-2.67)" fill="#fff"/><path d="M421.89,311.83a5.46,5.46,0,0,1-3.74-1.3v7.41h-4.24V293.46h3.94v2.71c1.2-1.94,2.77-3.24,5.24-3.24,4.54,0,6.62,4.71,6.62,9.22C429.71,306.39,427.47,311.83,421.89,311.83Zm-.43-15.26A3.26,3.26,0,0,0,419,297.7a2.58,2.58,0,0,0-.87,2.24v6.45c0,1.3.83,2.37,3,2.37,3.14,0,4.11-3.21,4.11-6S424.5,296.57,421.46,296.57Z" transform="translate(-2.67)" fill="#fff"/></g></g><rect x="318.69" y="33.79" width="72.65" height="55.76" fill="none" stroke="#b7d0e0" stroke-miterlimit="10" stroke-width="2.4"/><rect x="330.84" y="45.58" width="48.35" height="32.19" fill="#fff"/><rect x="34.19" y="1.24" width="128.81" height="126.41" fill="none" stroke="#b7d0e0" stroke-miterlimit="10" stroke-width="2.48"/><rect x="42.79" y="9.28" width="112" height="54.31" fill="#fff"/><rect x="42.79" y="65.97" width="112" height="53.83" fill="#fff"/><rect x="96.73" y="5.23" width="2.94" height="118.44" fill="#e6f2fd"/><path d="M272.86,148.17h34.67a26,26,0,0,1,26,26h0v16.5H246.82v-16.5a26,26,0,0,1,26-26Z" transform="translate(-2.67)" fill="#d68995"/><path d="M241.56,133.7l-48,48.66a9.42,9.42,0,0,0,.48,13.32,9.07,9.07,0,0,0,.9.74h0a9.41,9.41,0,0,0,10.14.58c9.08-5.14,30.33-16.91,42.06-33.28Z" transform="translate(-2.67)" fill="#eea197"/><path d="M215.66,155.28l4.79-10.51s6.41-1.56,8.24-11.07l-28.92-25.21s-5.48,1.3-1.82,13a77.18,77.18,0,0,0,7.9,18l-5.73,15.78Z" transform="translate(-2.67)" fill="#e38390"/><path d="M221.58,148.55l-8.35,33.2-11,16.29s-15.66,2.43-15.37-16.06,16.25-38.14,16.25-38.14Z" transform="translate(-2.67)" fill="#eea197"/><line x1="216.42" y1="156.48" x2="211.72" y2="177.15" fill="none"/><path d="M241,129.07l-6.31,63.81h77.64s-9.28-55.32-40.9-73.6Z" transform="translate(-2.67)" fill="#eea197"/><line x1="233.73" y1="175.55" x2="235.41" y2="155.28" fill="none"/><path d="M193,79.13S177.45,16.76,249,17.2L238.08,45.44Z" transform="translate(-2.67)" fill="#060000"/><path d="M298.79,61c-1.47,25.49-19.68,47.28-45.18,48.56A46.24,46.24,0,0,1,249,17.2C274.48,15.92,300.51,31.26,298.79,61Z" transform="translate(-2.67)" fill="#060000"/><circle cx="196.72" cy="91.57" r="14.23" fill="#e38390"/><path d="M230,30.14S205.79,29,197.07,56.78s.06,76.42,35,80.33c30.38,3.4,53.47-12.32,55.11-43.78C289,58.09,282.58,24.7,230,30.14Z" transform="translate(-2.67)" fill="#eaa9b3"/><path d="M287.36,78.65l-8.55,12.12-7.26-3s6.38-27.2-2.78-41.4l18.71-.94Z" transform="translate(-2.67)" fill="#060000"/><circle cx="289.69" cy="90.77" r="14.69" fill="#eaa9b3"/><path d="M285.72,95.07s2.77-10.43,13.9-7.77" transform="translate(-2.67)" fill="none" stroke="#060000" stroke-linecap="round" stroke-linejoin="round" stroke-width="1.91"/><path d="M205.06,33.92s-8.74,20.2,22.88,22.31c0,0-7.66-7.16-7.95-12.93,0,0,11.92,19.78,69.89,20.21,0,0,1.8-23-17.28-32.42S205.06,33.92,205.06,33.92Z" transform="translate(-2.67)" fill="#060000"/><path d="M212.27,26.05s-13-.43-22.17,12.33c0,0,6.57-1.36,17.57,0Z" transform="translate(-2.67)" fill="#060000"/><path d="M219.82,93.65s3-16.17-10.6-16.11c-12.5,0-13.7,23.84-2.25,24.7S219.82,93.65,219.82,93.65Z" transform="translate(-2.67)" fill="#fff"/><g clip-path="url(#a)"><ellipse cx="208.06" cy="93.73" rx="8.98" ry="10.73" transform="translate(-3.07 0.9) rotate(-0.25)" fill="#060000"/></g><path d="M220.1,89.23S219.31,77.3,208.91,78c-11.11.73-9.52,15.08-9.52,15.08" transform="translate(-2.67)" fill="none" stroke="#060000" stroke-linecap="round" stroke-linejoin="round" stroke-width="2.66"/><path d="M213.62,84.31a2.17,2.17,0,1,1-2.17-2.17h0A2.17,2.17,0,0,1,213.62,84.31Z" transform="translate(-2.67)" fill="#fff"/><path d="M261,94.69s3.27-16.17-11.47-16.11c-13.51.06-14.81,23.85-2.44,24.71S261,94.69,261,94.69Z" transform="translate(-2.67)" fill="#fff"/><g clip-path="url(#b)"><ellipse cx="247.6" cy="94.78" rx="9.97" ry="11.02" transform="translate(-3.08 1.06) rotate(-0.25)" fill="#060000"/></g><path d="M261.25,90.28S260.4,78.34,249.15,79c-12,.74-10.36,14.57-10.36,14.57" transform="translate(-2.67)" fill="none" stroke="#060000" stroke-linecap="round" stroke-linejoin="round" stroke-width="2.66"/><path d="M252.14,84.31A2.16,2.16,0,1,1,250,82.14h0a2.16,2.16,0,0,1,2.16,2.16Z" transform="translate(-2.67)" fill="#fff"/><path d="M220.19,108.36s-1.35-8.12,7.74-2.34" transform="translate(-2.67)" fill="none" stroke="#060000" stroke-linecap="round" stroke-linejoin="round" stroke-width="1.91"/><path d="M221.47,116l20.86-3s.57,9.54-9,9.75S221.47,116,221.47,116Z" transform="translate(-2.67)" fill="#fff"/><path d="M198.48,70.64s7.65-5.7,20.25-.09c0,0,.15-7.32-10.15-7.3A10.37,10.37,0,0,0,198.48,70.64Z" transform="translate(-2.67)" fill="#060000"/><path d="M261.22,70.37S252,64.75,237,70.48c0,0-.25-7.32,12.08-7.4C258.83,63,261.22,70.37,261.22,70.37Z" transform="translate(-2.67)" fill="#060000"/><path d="M253.85,72.58l-22.27,29.7s6.53,12.75,17.12,11.43l22.47-29S265.27,71.87,253.85,72.58Z" transform="translate(-2.67)" fill="#fff" opacity="0.22" style="isolation:isolate"/><path d="M203.09,72.15l-20.67,29.71s6.05,12.74,15.87,11.42l20.85-29S213.68,71.42,203.09,72.15Z" transform="translate(-2.67)" fill="#fff" opacity="0.22" style="isolation:isolate"/><path d="M229.91,93.14A21.53,21.53,0,1,0,251.62,71.8h0A21.52,21.52,0,0,0,229.91,93.14Z" transform="translate(-2.67)" fill="none" stroke="#797979" stroke-miterlimit="10" stroke-width="4.92"/><path d="M180.82,92.72c-.1,11.89,8.75,21.61,19.78,21.7s20-9.47,20.15-21.36S212,71.46,201,71.37,180.92,80.83,180.82,92.72Z" transform="translate(-2.67)" fill="none" stroke="#797979" stroke-miterlimit="10" stroke-width="4.92"/><path d="M229.91,93.14a10.18,10.18,0,0,0-9.17-.08" transform="translate(-2.67)" fill="none" stroke="#797979" stroke-miterlimit="10" stroke-width="4.92"/><path d="M263.36,151.75l-1.65-7.57s20.53-8.82,18.88-24.26c0,0,1.79-10.47-1.79-12.13s-3.31,4-3.31,4-1-3.64-3.17-3.17-1.71,3.68-1.71,3.68-1.6-3-3.53-2.3.22,6-1.85,8.61-6.55,9.44-12.34,11.92-14.47,8-7.17,25.5Z" transform="translate(-2.67)" fill="#eaa9b3"/><path d="M270.61,112.3a15.64,15.64,0,0,1-2.69,12.2" transform="translate(-2.67)" fill="none" stroke="#d38f6a" stroke-linecap="round" stroke-linejoin="round" stroke-width="1.27"/><path d="M275.49,111.79s2.35,5.09-1.43,12.71" transform="translate(-2.67)" fill="none" stroke="#d38f6a" stroke-linecap="round" stroke-linejoin="round" stroke-width="1.27"/><path d="M244.44,137.57s2.42-4.72,9.76-7.68a23.83,23.83,0,0,0,9.45-8.33,15,15,0,0,0,2.35-8.12c0-1.52.22-3.12,1.08-3.44,2.19-.8,3.53,2.31,3.53,2.31s-.33-3.29,1.71-3.69,3.17,3.17,3.17,3.17-.06-4.94,3.31-4,2.12,9.35,2.12,9.35l-.33,2.78a16,16,0,0,1-3.31,7.06" transform="translate(-2.67)" fill="none" stroke="#d38f6a" stroke-linecap="round" stroke-linejoin="round" stroke-width="1.27"/><path d="M295.82,147.67s1.28,38.47-15.39,53.92c-3,2.74-7.27,4.45-11.12,3.22h0c-5-1.58-8.9-6.85-7.49-11.86,3.52-12.51,9.91-36.15,9.91-49.73Z" transform="translate(-2.67)" fill="#eea197"/><line x1="266.25" y1="161.91" x2="268.22" y2="150.75" fill="none"/><path d="M296.93,156.74s-4.85,26.29-9.7,36.18" transform="translate(-2.67)" fill="none"/><path d="M275.53,176.79,263.26,149l-21,5.61s8.9,37.73,24,48.7Z" transform="translate(-2.67)" fill="#eea197"/><path d="M244.9,153.9l-2.65.71a122.89,122.89,0,0,0,6.39,21.14,105.61,105.61,0,0,0,9,17.72" transform="translate(-2.67)" fill="none"/><line x1="260.6" y1="149" x2="273.54" y2="178.58" fill="none"/><path d="M200,192h-98a4.86,4.86,0,0,0-4.86,4.85h0a4.86,4.86,0,0,0,4.86,4.86h98Z" transform="translate(-2.67)" fill="#646464"/><path d="M192.92,195.82H97.31a12.07,12.07,0,0,1-11-7L56,122.36a6.74,6.74,0,0,1,3.33-8.94,6.64,6.64,0,0,1,2.81-.61h95.65a11.08,11.08,0,0,1,10.07,6.47l30.88,67.53a6.37,6.37,0,0,1-3.15,8.44A6.49,6.49,0,0,1,192.92,195.82Z" transform="translate(-2.67)" fill="#646464"/><g clip-path="url(#c)"><path d="M190.37,198.71H94.76a12.05,12.05,0,0,1-11-7.05L53.42,125.25a6.75,6.75,0,0,1,6.14-9.56h95.65a11.08,11.08,0,0,1,10.07,6.47l30.88,67.54a6.37,6.37,0,0,1-5.79,9Z" transform="translate(-2.67)" fill="#797979"/></g><path d="M128.38,153.74c2,4.37.59,9.27-3.12,11s-8.33-.49-10.31-4.85-.59-9.26,3.12-10.95S126.39,149.38,128.38,153.74Z" transform="translate(-2.67)" fill="#fff"/><path d="M259.9,201.73H198.05a5.57,5.57,0,0,1-5.57-5.57h0a5.58,5.58,0,0,1,5.57-5.57H259.9a5.57,5.57,0,0,1,5.57,5.57h0a5.57,5.57,0,0,1-5.57,5.57Z" transform="translate(-2.67)" fill="#646464"/></svg>