<svg id="Group_16820" data-name="Group 16820" xmlns="http://www.w3.org/2000/svg" width="9.444" height="9.585" viewBox="0 0 9.444 9.585">
  <defs>
    <style>
      .cls-1 {
        fill: #fff;
      }

      .cls-2 {
        fill: #e4eaf8;
      }

      .cls-3 {
        fill: none;
      }

      .cls-4 {
        fill: #474d54;
      }
    </style>
  </defs>
  <path id="Path_11540" data-name="Path 11540" class="cls-1" d="M254.108,83.809h.224c-.039,0,.059,0-.273,0a.7.7,0,0,0,0,1.4h2.047a.122.122,0,0,1,.1.186,4.614,4.614,0,0,0-.668,2.508c.042.77.886,1.06,1.257.38a2.294,2.294,0,0,0,.193-.739,2.468,2.468,0,0,1,1.4-1.679,2.825,2.825,0,0,0,.831-.432,1.293,1.293,0,0,0,.391-.482h0a.79.79,0,0,1,.713-.451h.575a.788.788,0,0,1-.014-.146c.005-4.009-.013-3.838.015-3.977-.551-.038-1.021.121-1.526-.253a2.6,2.6,0,0,0-1.5-.511h-3.4a.7.7,0,1,0-.017,1.4h-.13a.7.7,0,0,0,0,1.4.855.855,0,0,0-.77.245.7.7,0,0,0-.168.464S253.695,83.809,254.108,83.809Z" transform="translate(-253.095 -79.345)"/>
  <path id="Path_11541" data-name="Path 11541" class="cls-2" d="M316.319,237.853h0s.263-.516-.278-.516h-.748a.122.122,0,0,1,.1.186,4.612,4.612,0,0,0-.668,2.508c.041.754.851,1.047,1.233.421a.91.91,0,0,1-.123-.421A4.66,4.66,0,0,1,316.319,237.853Z" transform="translate(-312.281 -231.474)"/>
  <path id="Path_11543" data-name="Path 11543" class="cls-3" d="M461.315,88.821a.78.78,0,0,0,.78-.78V84.215a.78.78,0,0,0-1.56,0v3.826A.78.78,0,0,0,461.315,88.821Z" transform="translate(-452.918 -83.033)"/>
  <path id="Path_11545" data-name="Path 11545" class="cls-3" d="M461.315,147.062a.78.78,0,0,1-.78-.78v2.376a.78.78,0,0,0,1.56,0v-2.376A.78.78,0,0,1,461.315,147.062Z" transform="translate(-452.918 -143.65)"/>
  <path id="Path_11547" data-name="Path 11547" class="cls-2" d="M255.192,80.97c0-.113-.119-.12-.23-.316a.7.7,0,0,1,.609-1.043h-1.095a.7.7,0,0,0-.172,1.381c.108.025.278.018.025.018a.7.7,0,0,0,0,1.4,1.02,1.02,0,0,0-.588.094.7.7,0,0,0-.348.561.714.714,0,0,0,0,.107.7.7,0,0,0,.645.635v.007a.7.7,0,0,0,.017,1.395h1.109a.7.7,0,0,1-.235-1.354h0a.064.064,0,0,0,.04-.054c0-.03-.04-.046-.04-.046h0a.7.7,0,0,1,.078-1.318.082.082,0,0,0,.061-.076.086.086,0,0,0-.035-.079h0a.7.7,0,0,1,.088-1.194h0A.155.155,0,0,0,255.192,80.97Z" transform="translate(-253.094 -79.345)"/>
  <path id="Path_11548" data-name="Path 11548" class="cls-4" d="M255.036,75.489a.266.266,0,0,0,.266-.266V73.294a1.046,1.046,0,0,0-2.005-.417,1.511,1.511,0,0,1-1-.2,2.849,2.849,0,0,0-1.657-.564h-3.417a.966.966,0,0,0-.725,1.6.965.965,0,0,0-.171,1.351.966.966,0,0,0-.154,1.5.965.965,0,0,0,.646,1.679h1.8a4.929,4.929,0,0,0-.578,2.442.929.929,0,0,0,1.756.493,2.483,2.483,0,0,0,.221-.815,2.2,2.2,0,0,1,1.238-1.482,3.092,3.092,0,0,0,.893-.467,1.565,1.565,0,0,0,.472-.581c.182-.383.606-.285.676-.3a1.046,1.046,0,0,0,2.007-.412v-.656a.266.266,0,0,0-.532,0v.656a.514.514,0,0,1-1.028,0c0-4.075,0-3.828,0-3.877a.514.514,0,0,1,1.025.051v1.929A.266.266,0,0,0,255.036,75.489ZM253.21,77h-.118a1.061,1.061,0,0,0-.954.6,1.031,1.031,0,0,1-.31.383,2.643,2.643,0,0,1-.784.4,2.726,2.726,0,0,0-1.548,1.858,2.523,2.523,0,0,1-.168.673c-.245.449-.731.225-.757-.267A4.32,4.32,0,0,1,249.2,78.3a.388.388,0,0,0-.329-.594h-2.047a.432.432,0,1,1,0-.863c.591,0-.161,0,.273,0a.266.266,0,0,0,0-.532h-.238a.433.433,0,0,1-.427-.358.469.469,0,0,1,.054-.3l.044-.061.042-.043c.023-.02.078-.055.075-.053a.493.493,0,0,1,.211-.055h.238a.266.266,0,0,0,0-.532.434.434,0,0,1-.174-.831.693.693,0,0,1,.306-.036.266.266,0,0,0,.006-.532c-.049,0-.023,0-.053,0l-.077-.015-.022-.007-.107-.056-.056-.048-.054-.066a.448.448,0,0,1-.069-.29.433.433,0,0,1,.43-.383h3.417a2.338,2.338,0,0,1,1.339.459,1.825,1.825,0,0,0,1.226.306V77Z" transform="translate(-245.859 -72.112)"/>
</svg>
