<svg xmlns="http://www.w3.org/2000/svg" width="28.01" height="26.25" viewBox="0 0 28.01 26.25" fill="#5B50C9"><path d="M23.31,26.25H4.72A2.53,2.53,0,0,1,2.2,23.73V10.5A.88.88,0,1,1,4,10.5V23.73a.78.78,0,0,0,.77.77H23.31a.77.77,0,0,0,.76-.77h0V10.5a.88.88,0,1,1,1.75,0V23.73A2.52,2.52,0,0,1,23.31,26.25Z"/><path d="M27.14,13.56a.84.84,0,0,1-.62-.26L15.64,2.42a2.29,2.29,0,0,0-3.25,0L1.51,13.3A.87.87,0,0,1,.24,12.1l0,0L11.15,1.18a4.06,4.06,0,0,1,5.72,0L27.76,12.06a.88.88,0,0,1,0,1.24.87.87,0,0,1-.62.26Z"/><path d="M17.51,26.24h-7a.87.87,0,0,1-.87-.87V17.61a2.74,2.74,0,0,1,2.73-2.74h3.28a2.74,2.74,0,0,1,2.74,2.74v7.76A.87.87,0,0,1,17.51,26.24Zm-6.12-1.75h5.25V17.6a1,1,0,0,0-1-1H12.37a1,1,0,0,0-1,1Z"/></svg>