<svg xmlns="http://www.w3.org/2000/svg" width="19.7" height="25.76" viewBox="0 0 19.7 25.76"><path d="M10.61,25.76A9.87,9.87,0,0,1,3.92,23.4l0,0A18,18,0,0,1,.8,19a10.13,10.13,0,0,1-.62-5.87A12.65,12.65,0,0,1,2.66,7.81a.6.6,0,0,1,1.07.42,4.56,4.56,0,0,0,0,.64A9.05,9.05,0,0,1,5.86,4.31,15.23,15.23,0,0,1,12.37,0a.61.61,0,0,1,.69.23A.6.6,0,0,1,13,1a4.42,4.42,0,0,0-.77,4.25A19.08,19.08,0,0,0,14.5,9.64,10.83,10.83,0,0,1,16,12.89q.24-.56.45-1.11a4.88,4.88,0,0,0,.19-2.65A.59.59,0,0,1,17,8.47a.6.6,0,0,1,.72.15,8.16,8.16,0,0,1,1.82,4,16.37,16.37,0,0,1,.06,4.53A11.63,11.63,0,0,1,18,21.93a9.2,9.2,0,0,1-4.79,3.59A14.88,14.88,0,0,1,10.61,25.76ZM4.72,22.52a9.7,9.7,0,0,0,8.2,1.84A8,8,0,0,0,17,21.28,10.23,10.23,0,0,0,18.37,17a14.84,14.84,0,0,0,0-4.21,7,7,0,0,0-.47-1.62,5.89,5.89,0,0,1-.27,1A17.18,17.18,0,0,1,16.26,15a.6.6,0,0,1-.65.29.6.6,0,0,1-.46-.53,9.64,9.64,0,0,0-1.65-4.44,20.33,20.33,0,0,1-2.37-4.7,5.69,5.69,0,0,1,0-3.82A14.18,14.18,0,0,0,6.76,5.1,7.89,7.89,0,0,0,5,11.67a.58.58,0,0,1-.33.64.57.57,0,0,1-.7-.14A5.31,5.31,0,0,1,2.7,9.88a11.28,11.28,0,0,0-1.34,3.5,9,9,0,0,0,.53,5.14A17,17,0,0,0,4.72,22.52Z"/><path d="M9.88,25.76A5.22,5.22,0,0,1,8,25.41a5.84,5.84,0,0,1-3.76-5,5.91,5.91,0,0,1,1.42-4,.62.62,0,0,1,.56-.2,7.18,7.18,0,0,1,.18-1.59,7.44,7.44,0,0,1,2.68-4.13A.6.6,0,0,1,10,11a4.81,4.81,0,0,0,.78,3.42c.29.5.6,1,.92,1.41a20.9,20.9,0,0,1,1.26,2,5,5,0,0,1,.6,1.46,7.44,7.44,0,0,0,0-1.71v-.08a.6.6,0,0,1,.57-.6.63.63,0,0,1,.56.32l.07.14a5.42,5.42,0,0,1-.69,6.28A5.56,5.56,0,0,1,9.88,25.76Zm-4-7.53a4.69,4.69,0,0,0-.46,2.09,4.62,4.62,0,0,0,3,4h0a4.2,4.2,0,0,0,4.78-1.35,4.86,4.86,0,0,0,.66-1,3.86,3.86,0,0,1-.54.6.6.6,0,0,1-1-.63,4.21,4.21,0,0,0-.4-3.41,19.21,19.21,0,0,0-1.22-1.94c-.32-.48-.65-1-.94-1.45a6,6,0,0,1-1-2.71,6.08,6.08,0,0,0-1.25,2.5A6.28,6.28,0,0,0,8,19a.59.59,0,0,1-.89.74A3.84,3.84,0,0,1,5.88,18.23Z"/></svg>